<?xml version="1.0" encoding="UTF-8" standalone="no"?>
<svg
   viewBox="0 0 640 640"
   version="1.1"
   id="svg1"
   sodipodi:docname="sliders.svg"
   inkscape:version="1.4.3 (fcd0343856, 2026-01-01)"
   xmlns:inkscape="http://www.inkscape.org/namespaces/inkscape"
   xmlns:sodipodi="http://sodipodi.sourceforge.net/DTD/sodipodi-0.dtd"
   xmlns="http://www.w3.org/2000/svg"
   xmlns:svg="http://www.w3.org/2000/svg">
  <defs
     id="defs1" />
  <sodipodi:namedview
     id="namedview1"
     pagecolor="#505050"
     bordercolor="#eeeeee"
     borderopacity="1"
     inkscape:showpageshadow="0"
     inkscape:pageopacity="0"
     inkscape:pagecheckerboard="0"
     inkscape:deskcolor="#505050"
     inkscape:zoom="1.2546875"
     inkscape:cx="320"
     inkscape:cy="320"
     inkscape:window-width="1191"
     inkscape:window-height="1011"
     inkscape:window-x="20"
     inkscape:window-y="20"
     inkscape:window-maximized="0"
     inkscape:current-layer="svg1" />
  <!--!Font Awesome Free 7.2.0 by @fontawesome - https://fontawesome.com License - https://fontawesome.com/license/free Copyright 2026 Fonticons, Inc.-->
  <path
     id="path1"
     style="fill:#000000;fill-opacity:1"
     sodipodi:type="inkscape:offset"
     inkscape:radius="-15.207883"
     inkscape:original="M 256 80 C 223.2 80 194.99922 99.7 182.69922 128 L 96 128 C 78.3 128 64 142.3 64 160 C 64 177.7 78.3 192 96 192 L 182.69922 192 C 194.99922 220.3 223.2 240 256 240 C 288.8 240 317.00078 220.3 329.30078 192 L 544 192 C 561.7 192 576 177.7 576 160 C 576 142.3 561.7 128 544 128 L 329.30078 128 C 317.00078 99.7 288.8 80 256 80 z M 416 240 C 383.2 240 354.99922 259.7 342.69922 288 L 96 288 C 78.3 288 64 302.3 64 320 C 64 337.7 78.3 352 96 352 L 342.69922 352 C 354.99922 380.3 383.2 400 416 400 C 448.8 400 477.00078 380.3 489.30078 352 L 544 352 C 561.7 352 576 337.7 576 320 C 576 302.3 561.7 288 544 288 L 489.30078 288 C 477.00078 259.7 448.8 240 416 240 z M 224 400 C 191.2 400 162.99922 419.7 150.69922 448 L 96 448 C 78.3 448 64 462.3 64 480 C 64 497.7 78.3 512 96 512 L 150.69922 512 C 162.99922 540.3 191.2 560 224 560 C 256.8 560 285.00078 540.3 297.30078 512 L 544 512 C 561.7 512 576 497.7 576 480 C 576 462.3 561.7 448 544 448 L 297.30078 448 C 285.00078 419.7 256.8 400 224 400 z "
     d="m 256,95.207031 c -26.71066,0 -49.41237,15.982749 -59.35352,38.855469 a 15.209404,15.209404 0 0 1 -13.94726,9.14453 H 96 c -9.508937,0 -16.792969,7.28403 -16.792969,16.79297 0,9.50894 7.284032,16.79297 16.792969,16.79297 h 86.69922 a 15.209404,15.209404 0 0 1 13.94726,9.14453 c 9.94115,22.87272 32.64286,38.85547 59.35352,38.85547 26.71066,0 49.41237,-15.98275 59.35352,-38.85547 a 15.209404,15.209404 0 0 1 13.94726,-9.14453 H 544 c 9.50894,0 16.79297,-7.28403 16.79297,-16.79297 0,-9.50894 -7.28403,-16.79297 -16.79297,-16.79297 H 329.30078 A 15.209404,15.209404 0 0 1 315.35352,134.0625 C 305.41237,111.18978 282.71066,95.207031 256,95.207031 Z M 416,255.20703 c -26.71066,0 -49.41237,15.98275 -59.35352,38.85547 a 15.209404,15.209404 0 0 1 -13.94726,9.14453 H 96 c -9.508937,0 -16.792969,7.28403 -16.792969,16.79297 0,9.50894 7.284032,16.79297 16.792969,16.79297 h 246.69922 a 15.209404,15.209404 0 0 1 13.94726,9.14453 c 9.94115,22.87272 32.64286,38.85547 59.35352,38.85547 26.71066,0 49.41237,-15.98275 59.35352,-38.85547 a 15.209404,15.209404 0 0 1 13.94726,-9.14453 H 544 c 9.50894,0 16.79297,-7.28403 16.79297,-16.79297 0,-9.50894 -7.28403,-16.79297 -16.79297,-16.79297 H 489.30078 A 15.209404,15.209404 0 0 1 475.35352,294.0625 C 465.41237,271.18978 442.71066,255.20703 416,255.20703 Z m -192,160 c -26.71066,0 -49.41237,15.98275 -59.35352,38.85547 a 15.209404,15.209404 0 0 1 -13.94726,9.14453 H 96 c -9.508937,0 -16.792969,7.28403 -16.792969,16.79297 0,9.50894 7.284032,16.79297 16.792969,16.79297 h 54.69922 a 15.209404,15.209404 0 0 1 13.94726,9.14453 c 9.94115,22.87272 32.64286,38.85547 59.35352,38.85547 26.71066,0 49.41237,-15.98275 59.35352,-38.85547 a 15.209404,15.209404 0 0 1 13.94726,-9.14453 H 544 c 9.50894,0 16.79297,-7.28403 16.79297,-16.79297 0,-9.50894 -7.28403,-16.79297 -16.79297,-16.79297 H 297.30078 A 15.209404,15.209404 0 0 1 283.35352,454.0625 C 273.41237,431.18978 250.71066,415.20703 224,415.20703 Z" />
</svg>
