<svg xmlns="http://www.w3.org/2000/svg" viewBox="0 0 584 584"><g fill="#30d465"><path d="M111.11 195.84c33.69 48.82 35.53 105.98 35.53 105.98s-52.79-21.99-86.48-70.81c-33.7-48.82-35.53-105.98-35.53-105.98s52.79 21.99 86.48 70.81"/><path d="M70 298c43-14 85-3 85-3s-27 34-70 48-85 3-85 3 27-34 70-48m385 198c-42 8-80-6-80-6s30-27 72-35 80 6 80 6-30 27-72 35m35-196c-26 33-64 46-64 46s4-40 30-73 64-46 64-46-4 40-30 73"/><path d="M278 85c7-34 18-63 23-77 1-3-2-8-6-8h-94c-3 0-6 3-6 6 0 13-2 46-9 83-7 34-18 63-23 77-2 4 1 9 6 9h94c3 0 6-3 6-6 0-13 1-46 9-83Zm-42 205c7-34 18-63 23-77 2-4-1-9-6-9h-94c-3 0-6 3-6 6 0 13-2 46-9 83-7 34-18 63-23 77-2 4 1 9 6 9h94c3 0 6-3 6-6 0-13 1-46 9-83m-42 205c7-34 18-63 23-77 2-4-1-9-6-9h-94c-3 0-6 3-6 6 0 13-2 46-9 83-7 34-18 63-23 77-2 4 1 9 6 9h94c3 0 6-3 6-6 0-13 1-46 9-83M477 85c7-34 18-63 23-77 2-3-1-8-6-8h-94c-3 0-6 3-6 6 0 13-2 46-9 83-7 34-18 63-23 77-2 4 1 9 6 9h94c3 0 6-3 6-6 0-13 1-46 9-83Zm-42 205c7-34 18-63 23-77 2-4-1-9-6-9h-94c-3 0-6 3-6 6 0 13-2 46-9 83-7 34-18 63-23 77-2 4 1 9 6 9h94c3 0 6-3 6-6 0-13 1-46 9-83m-42 205c7-34 18-63 23-77 2-4-1-9-6-9h-94c-3 0-6 3-6 6 0 13-2 46-9 83-7 34-18 63-23 77-2 4 1 9 6 9h94c3 0 6-3 6-6 0-13 1-46 9-83"/></g></svg>