<svg xmlns="http://www.w3.org/2000/svg" viewBox="45.5 12.97 177.59 177.59"><path fill="currentColor" d="M104.25 14.12c-2.77 2.84-.78 9.17 4.41 14.05 3.7 3.48 20.04 12.12 20.75 10.98.97-1.57-7.48-16.5-11.86-20.97-4.59-4.7-10.82-6.6-13.3-4.06m44.96 1.23a30 30 0 0 0-5.03 4.74c-3.13 4.07-10.2 18.07-9.6 19.03.9 1.46 16.44-7.25 21.09-11.8 4.77-4.7 6.12-8.29 4.48-11.9-1.48-3.24-6.6-3.28-10.94-.07m21.89 5.25c-2.56 3.25-3.53 8.24-2.69 13.7.86 5.58 5.65 19.7 6.68 19.7.45 0 2.23-4.39 3.96-9.75 2.56-7.93 3.05-10.84 2.63-15.6-.82-9.41-6.26-13.55-10.58-8.05m-84.7 3.5c-3.29 3.64-3.1 15.59.4 25.4 1.57 4.4 3.25 8 3.74 8 1.55 0 5.67-14.77 6.14-22 .37-5.83.1-7.54-1.6-10.25-2.42-3.84-5.83-4.3-8.67-1.15m41.65 29.54c-1.68 5.3-3.06 11.58-3.06 13.96 0 5.15 2.62 11.14 5.23 11.97 4.97 1.58 9.6-6.73 8.4-15.06-.85-5.9-5.56-20.51-6.61-20.51-.5 0-2.28 4.34-3.96 9.64m62.44-1.14a87 87 0 0 0-8.95 3.03c-4.62 1.95-4.2 2.36 5.61 5.5 14.23 4.55 25.92 3.13 26.65-3.26.7-5.98-11.02-8.63-23.31-5.27M55.74 55.6c-5.05 2.17-6.07 5.86-2.48 8.94 2.83 2.44 9.98 3.9 14.38 2.92C74.18 66.03 87 61.71 87 60.94c0-1.25-16.85-6.2-22.5-6.6-3.11-.21-6.42.26-8.76 1.27m108.06 7.26C151.27 69.76 147 74.3 147 80.77c0 6 6.26 6.32 13.62.7C163.47 79.3 173 62.85 173 60.1c0-1.77-2.1-1.14-9.2 2.78m-69.63 5.88c6.1 11.61 8.05 14.4 12.05 17.3 6.1 4.42 12.78 3.75 12.78-1.29 0-3.18-3.73-9.32-7.34-12.07-4.22-3.22-16.91-9.69-19-9.69-1.17 0-.83 1.3 1.51 5.75m117.18 4.11c-4.76 3.45-6.93 6.33-11.22 14.86-4.9 9.75-4.5 10.05 6.45 4.7 11.64-5.67 17.6-13.02 16.25-20.07-.6-3.23-6.69-2.96-11.48.51M46.5 77.36c-1.62 2.47-1.6 2.8.5 7.14 1.21 2.5 3.62 5.61 5.35 6.9 3.33 2.5 17.86 10.6 18.98 10.6q2.34.01-3.46-11.14c-4.65-8.93-10.57-14.61-16.18-15.52-2.98-.49-3.74-.19-5.2 2.02m113.73 16.4c-7.43 3.7-4.14 10.38 5.7 11.54 3.94.47 7.2.01 13.87-1.96 4.79-1.41 9.5-2.8 10.46-3.07 3.24-.93 1.8-1.89-7.66-5.09-10.49-3.54-17.24-3.97-22.37-1.42m-64.72 3.7C84.6 100.8 77 103.5 77 104.04c0 1.02 14.82 5.84 20.24 6.58 9.35 1.28 18.1-3.6 15.14-8.44-2.26-3.69-11.65-6.32-16.88-4.72m100.67 4.35c2.67 6.47 9.14 17.42 12.02 20.34 4.39 4.44 10.92 6.84 13.28 4.88.84-.7 1.53-2.6 1.53-4.2 0-6.59-4.88-11.66-17.23-17.92-7.59-3.84-10.27-4.7-9.6-3.1m-133.12 8.35c-12.33 6.33-18.83 13.9-17.26 20.1.55 2.15 4.24 3.2 7.96 2.27 4.03-1.02 10.72-8.53 14.8-16.63 5.2-10.33 4.62-10.94-5.5-5.74m88.15 5.04c-1.54 1.54-1.52 3.96.05 6.94 3.25 6.14 7.88 10 17.77 14.8 6.62 3.2 8.98 3.74 8.98 2.06a1 1 0 0 0-1-1c-.55 0-1-.57-1-1.27 0-3.03-9.27-16.91-13.19-19.75-4.32-3.13-9.47-3.92-11.61-1.78m-36.99 2.93c-1.8.52-4.96 2.63-7 4.69-3.76 3.8-11.67 18.31-11.02 20.24.43 1.29 15.58-6.15 19.84-9.74 3.9-3.28 5.97-7.32 5.97-11.66 0-4.6-1.6-5.32-7.79-3.53m18.89 7.47c-3.31 4.2-3.6 8.67-1.18 18.51 2.67 10.89 4.32 15 5.68 14.08 1.34-.9 5.57-14.52 6.17-19.88 1.33-11.77-5.25-19.6-10.67-12.7m62.4 11.07c-7.75 2.27-13.5 4.52-13.5 5.28 0 .82 14.93 5.63 20.15 6.49 8.3 1.37 16.72-2.84 15.49-7.75-1.28-5.08-11.93-7.02-22.14-4.02M58.76 140.5c-3.8 2.16-4.63 6.07-1.86 8.84 3.16 3.17 15.86 3.06 25.87-.22 4-1.31 7.48-2.72 7.73-3.12s-2.8-1.96-6.78-3.47c-8.98-3.42-20.8-4.38-24.96-2.03m116.77 11.69c-5.17 13.72-4.25 26.84 2 28.4 5.71 1.44 9.21-6.62 7.37-17-1.04-5.89-4.49-16.36-5.89-17.9-.4-.45-1.97 2.48-3.48 6.5m-84.95 5.14c-1.46 4.59-2.92 9.98-3.25 12-.81 5.03 1.42 12.46 4.32 14.36 2.12 1.4 2.59 1.38 4.81-.07 3.69-2.42 5.06-8.6 3.7-16.7C99 159.95 95.23 149 93.99 149c-.41 0-1.94 3.75-3.4 8.33m34.92 10.03c-4.4 2.28-9.88 6.01-12.18 8.3-6.61 6.56-6.96 14.34-.65 14.34 3.45 0 8.37-2.7 11.59-6.36 3.75-4.27 11.15-18.65 10.1-19.63-.48-.43-4.46 1.08-8.86 3.35m14.03-3.4c-.6.95 3.5 9.15 8.54 17.1 4.4 6.93 13.38 11.09 16.73 7.74 3.13-3.13-.65-12.11-6.8-16.19-6.42-4.24-17.88-9.62-18.47-8.66m-22.92 48.38c-4.83 1.46-7.77 5.23-7.9 10.16-.15 5.03 2.98 7.64 12.45 10.4 10.09 2.92 12.28 4.19 12.65 7.3.4 3.5-3 5.81-8.56 5.81-6.03 0-10.83-2.2-11.62-5.33-.51-2.04-1.18-2.5-3.38-2.31-2.27.2-2.7.66-2.47 2.65.76 6.66 7.8 10.84 17.43 10.34 9.66-.5 14.79-4.45 14.79-11.38 0-5.97-5.03-9.47-17.14-11.92-3.22-.65-6.42-2-7.46-3.17-1.66-1.82-1.7-2.27-.36-4.64 2.9-5.16 14.12-4.98 17.58.3.97 1.47 2.56 2.46 4 2.46 3.56 0 3.06-3.62-1.04-7.5-4.8-4.53-11.03-5.57-18.97-3.17M12 231.47V251h30v-5H18v-12h21v-5H18v-12h12.07c11.94 0 12.07-.02 11.75-2.25-.31-2.2-.63-2.26-15.07-2.53L12 211.95zm183.9-11.04c-.23.24-2.97.57-6.07.74s-5.46.62-5.23 1c.24.38.02.95-.48 1.26-.5.3-1.18-.15-1.51-1-.36-.94-1.5-1.44-2.86-1.25-2.2.31-2.26.62-2.53 15.07l-.27 14.75H183v-10.04c0-9.34.17-10.22 2.46-12.5a8 8 0 0 1 5.94-2.46c5.48 0 6.6 2.5 6.6 14.72V251h6v-10.57c0-6.07-.5-11.49-1.16-12.75-1.32-2.5-4.71-5.68-6.05-5.68-.5 0-.63-.45-.29-1 .62-1 .22-1.38-.6-.57m-144.65 1.74c-1.24.62-2.25 1.57-2.25 2.09 0 .53-.7.69-1.55.36s-1.3-.2-1 .29c.3.48-.13 2.17-.95 3.74-1.91 3.66-1.92 11.63-.02 15.32 2.55 4.91 6.56 7.03 13.35 7.03 5.47 0 6.36-.31 9.6-3.37 1.96-1.85 3.57-4.1 3.57-5 0-2.56-4.15-1.96-6.67.97-3.98 4.63-11.84 3.18-14.9-2.75-2.04-3.94-1.16-9.22 2.1-12.46 3.38-3.39 9.58-3.33 12.3.11 2.2 2.8 7.17 3.5 7.17 1.02 0-.82-1.3-2.93-2.87-4.7-2.58-2.89-3.5-3.24-9.25-3.5-3.5-.16-7.4.22-8.63.85m31.04.4c-6.23 3.2-9.1 13.8-5.68 21.01 4.25 8.97 18.72 10.6 24.62 2.77 5.1-6.75 4.87-15.09-.55-21-2.82-3.08-3.91-3.55-9.2-3.96-4.33-.34-6.86-.02-9.2 1.18m69.22-.61c-6.9 2.88-10.2 12.3-7.12 20.36 2.03 5.31 5.72 8.17 11.57 8.95 7.85 1.05 13.9-3.12 16-11.02 1.96-7.37-.96-14.65-7.15-17.85-2.95-1.53-10.12-1.76-13.3-.44m62.54 1.66c-4 3.36-6.04 7.36-6.04 11.81 0 9.32 7.4 17.04 15.38 16.04 2.21-.28 5.06-1.18 6.32-2 2.05-1.35 2.3-1.35 2.3 0 0 1.04.98 1.53 3.03 1.53h3.02l-.27-14.75c-.27-14.45-.33-14.76-2.53-15.07-1.35-.2-2.5.3-2.86 1.23-.53 1.39-.83 1.4-2.71.08-1.22-.86-4.34-1.49-7.33-1.49-4.15 0-5.82.53-8.3 2.62m30.62-1.95c-.37.36-.67 7.14-.67 15.06v14.4l2.75-.31c2.73-.32 2.75-.4 3.3-9.32.3-4.95.9-9.77 1.34-10.7.43-.94 2.8-2.68 5.25-3.87q4.48-2.15 4.15-3.8c-.48-2.5-4.7-2.57-8-.13-1.62 1.2-3.24 1.89-3.59 1.53s-.05-1 .66-1.44c1.02-.63.94-.95-.36-1.45-2.14-.82-4-.81-4.83.03m-159.44 5c-1.93.78-4.23 5.85-4.23 9.33 0 3.74 2.32 8.53 4.55 9.38 3.07 1.18 8.24.61 10.4-1.14 4.6-3.73 3.48-15.37-1.67-17.32-2.56-.98-6.95-1.1-9.05-.25m66.85 1.06c-1.86 1.5-2.5 3.18-2.85 7.53-.42 5-.2 5.87 2.1 8.17 5 5 13.6 2.66 15.32-4.17.74-2.94-.33-8.25-2.13-10.63-2.13-2.82-9.41-3.35-12.44-.9m65.83-.45c-2.39 1.84-3.91 5.23-3.91 8.72s1.52 6.88 3.91 8.72c2.23 1.7 8.23 1.57 10.83-.25 4.7-3.3 4.7-13.65 0-16.94-2.6-1.82-8.6-1.96-10.83-.25"></path></svg>