<svg xmlns="http://www.w3.org/2000/svg" xml:space="preserve" viewBox="216 179 594 496"><path fill="currentColor" d="m350 631-85-10-43-6q-6 1-6-6V265q-1-9 6-5l25 7q7 3 7-5v-39q3-2 4-1l29 9q6 2 6-4v-42h5q52 18 102 40l28 14q6 3 2 8c-8 9-8 9-18 3q-40-20-81-34l-19-6q-2 2-2 5v95q1 5 4 8l31 23q4 4 4 10v69q0 9 7 11l24 13q6 5 7 14l-4-1-39-21q-4-2-4-8v-73q0-5-5-9l-18-14q-3-3-5-3-2 2-2 5v185q1 5 5 6l58 22q47 20 88 50l6 3-2-5-26-51q-2-3-6-5l-74-35h-7a14 14 0 1 1-12-25q14-4 18 10 2 5 6 7l75 35q6 3 8 7l42 81q5 9 14 17 3-4 2-9V508q0-77-59-128-21-19-47-34-5-3-3-10 15-44 44-80 30-40 67-72c6-6 6-6 11-1q37 33 67 71c9 11 5 20-1 28l-36 38q-15 14-26 30a87 87 0 0 0-16 52v23l2 6c3-9 12-15 12-26q-1-34 22-59l43-45 14-17 3-4 3 3q32 48 33 105-1 61-39 108-27 31-59 55l-8 8q-10 9-10 23v51l1 4 15-18 40-78q4-8 11-11l72-34q6-1 7-8 5-12 17-10 13 6 10 19-6 12-19 8-6-4-12 0l-70 33-7 7-29 57 26-18q52-33 109-52l18-7q5-1 5-7V375q1-3-2-6-14 8-26 18-2 2-2 6v36q1 4-3 7l-42 22h-3q2-10 10-15l23-12q6-3 6-10v-34q0-5 4-7l31-22q4-3 4-7l-1-57 1-77-1-7q-8 1-14 4-45 16-88 37c-10 5-10 5-17-5q-4-4 2-7 26-14 55-26l74-27q3-2 5-1 2 2 1 5v37q0 6 6 4l28-9h5l1 45q3 2 6 0l25-7q7-3 6 5v343q1 8-7 8l-65 7-87 11-64 7-23 3-6 3-40 27q-5 3-10-1l-38-25q-11-6-22-6l-81-9zm-79-248v163q4-1 5-3l13-13q4-3 4-9V264c0-15 2-12-12-17h-2q-9-5-8 5zm478-137-9 3q-7 1-7 10v247q-2 23 15 35 2 4 7 5V252q1-9-6-6M234 472v112h2l13-14q5-4 5-11V293q1-5-4-7l-12-3q-4-2-4 3zm538 27v61l1 7 18 18V282l-12 3q-7 1-7 10zm1 102 8-2-19-19q-2-2-5-1a770 770 0 0 0-151 41v1zm-153-6q60-20 125-32l-20-20q-3-4-8-2l-35 14q-54 19-101 52-6 4-10 9zm-370 6 55 7 82 9 33 4-7-4q-70-26-144-38h-4l-20 20q2 2 5 2m148-23q-44-21-90-37-4-1-7 2l-15 16q-3 1-2 4c59 12 117 26 172 53q-27-22-58-38m283-90q-4 2-4 5l4 4q4 0 4-3 2-5-4-6m-333 7q2-3-1-6h-5q-3 3-1 5 3 3 7 1"/></svg>