<svg xmlns="http://www.w3.org/2000/svg" width="1221.333" height="1221.333" version="1.0" viewBox="0 0 916 916"><g fill="currentColor"><path d="M432.5 36.1c-100 7-192.8 48.5-263.9 117.9-18.4 18-30.7 31.9-45.2 51.4C61.6 287.9 32.4 392 42.1 496 53.9 623.4 123 738 230.5 808.5c17.8 11.6 27 16.8 46.9 26.7 15.5 7.5 33.9 15.2 47.6 19.8 12.2 4.1 23.6 1 28.8-8l2.7-4.5-.4-41.5c-.1-22.8-.5-41.7-.6-41.9-.2-.2-5.5.5-11.7 1.4-15.3 2.3-40.8 3.1-53.5 1.6-26.7-3.1-45.1-11.6-59.9-27.4-7-7.5-8.8-10.6-19.7-33.7-6.2-12.9-16.5-29.2-25.1-39.2-3.7-4.5-8.9-8.9-15.4-13.1-14.7-9.8-20.3-16.6-18.3-22 .9-2.2 3.3-3.6 8.8-5.2 3.8-1.1 18.5-.7 23.8.6 19 4.6 36.2 18.7 52.3 42.8 16.1 24.2 31.6 36.3 53.7 42.2 15.8 4.1 38.2 2.5 57.3-4.2 10-3.6 11.2-4.3 11.2-7.4 0-3.4 3.6-16.7 6.6-24.1 3.6-9.2 8.4-17 13.9-23.2 4.4-4.9 4.5-5.2 2.3-5.6-1.3-.2-9.7-1.6-18.8-3-75.1-11.8-122.7-42.8-148.4-96.6-12.4-26-18.4-52.2-20.7-90.2-3.1-50.5 8.2-89.2 36-124.1l6.3-7.9-2.6-9.1c-6.8-24.6-7.3-47.5-1.5-74.4 2.2-10.1 7.2-25.8 9-27.9 1.7-2.1 15.3-1.8 26.9.6 23.1 4.7 47.9 15.8 79.6 35.6l10 6.3 9.5-2.5c12.6-3.2 32.3-6.9 49.4-9.1 17.6-2.2 70.8-2.5 88-.5 16.6 2 38.6 5.9 51.8 9.1l11.8 3 9.7-6.3c28.7-18.6 58.4-31.9 80.5-36.1 8.2-1.6 23.4-2 25.3-.7.7.4 2.8 5.4 4.7 11.2 10.3 30.6 11.4 64.2 3.2 92.4l-2.6 8.9 2.9 3.1c13.5 14.5 27.2 39.6 33.5 61.6 5.9 20.2 7.8 44.7 5.8 72.1-4 54.6-19 94.4-47.1 124.8l-6.6 7.1 92-.2 91.9-.3 1.9-5.5c7-20.1 15.1-60 18-87.5 1.9-19.1 1.6-66.1-.6-85-3.3-28.5-8-51.6-15.7-77.2C832 224.7 753.2 131.3 650 79.5c-66.4-33.3-143.3-48.7-217.5-43.4"/><path d="M489.1 627.1c-17.4 3.4-32.9 18.8-36.6 36.6-2.2 10-2.2 168.6 0 178.6 3.8 18.2 19.1 33.2 37.4 36.7 7.3 1.4 343.7 1.4 351.2 0 18.3-3.4 34.4-19.5 37.9-37.9 1.4-7.3 1.4-168.9 0-176.2-3.5-18.4-19.6-34.5-37.9-37.9-6.7-1.2-345.6-1.2-352 .1M840 659.3c3 1.6 5.1 3.7 6.7 6.7l2.3 4.3v165.4l-2.3 4.3c-1.6 3-3.7 5.1-6.7 6.7l-4.3 2.3h-170c-170 0-170.1 0-174.3-2.1-2.6-1.2-5.3-3.6-6.6-5.7l-2.3-3.7v-169l2.3-3.7c1.3-2 4.1-4.5 6.5-5.7l4.2-2.1h340.2z"/><path d="M552 707.4c-13.8 4-23.6 13.7-28.3 28-2.9 9-2.9 25.7 0 35.1 6.8 21.8 29.4 34 52 28.2l5.1-1.4 3.3 4.3 3.4 4.3 8.8.1h8.8l-6-7.4c-3.4-4.1-6.1-7.8-6.1-8.1 0-.4 1.4-2.3 3.1-4.3 6.8-7.7 10.9-20.2 10.9-33.2 0-20.5-8-34.9-23.6-42.6-6.7-3.4-8.3-3.7-17.2-4-6-.2-11.4.2-14.2 1m22.9 17.6c4.8 2.4 7.5 5.5 10.3 11.5 2 4.3 2.3 6.6 2.3 16.5 0 10.4-.3 12-2.7 17.2-1.5 3.2-3.1 5.8-3.6 5.8-.4 0-2.1-1.8-3.8-4l-2.9-4h-15.7l2.6 3.5c1.4 1.9 3.8 5.1 5.3 7.1 2.2 3 2.4 3.7 1.2 4.5-2.1 1.4-9.7.1-14.9-2.5-14.3-7.1-17.4-38.7-5-51.4 6.8-7.1 18-8.8 26.9-4.2M629 753v47h58v-15h-39v-79h-19zM729.2 708c-4.8 2.9-7.2 7.5-7.2 13.7 0 4.7.4 5.8 3.6 9.3 5 5.6 8.4 6.2 30 5.8 16.7-.3 18.5-.5 21.1-2.4 9.7-7.2 9.8-20.5.1-26.4-3-1.8-5.1-2-23.8-2s-20.8.2-23.8 2M732.5 770c-1.7.5-4.6 2.5-6.5 4.5-2.9 3-3.4 4.3-3.7 9.2-.5 6.8 1.6 11.1 6.9 14.3 3.1 1.9 5.1 2 39.9 2 36.3 0 36.6 0 39.9-2.3 9.4-6.3 9.2-19-.3-26.1-2.7-2-4-2.1-38-2.3-19.4-.1-36.6.2-38.2.7"/></g></svg>