<?xml version="1.0" encoding="utf-8"?>
<svg version="1.0" xmlns="http://www.w3.org/2000/svg" width="916.000000pt" height="916.000000pt" viewBox="0 0 916.000000 916.000000" preserveAspectRatio="xMidYMid meet">
  <g transform="translate(0.000000,916.000000) scale(0.100000,-0.100000)" fill="#000000" stroke="none">
    <path d="M4325 8799 c-1000 -70 -1928 -485 -2639 -1179 -184 -180 -307 -319 -452 -514 -618 -825 -910 -1866 -813 -2906 118 -1274 809 -2420 1884 -3125 178 -116 270 -168 469 -267 155 -75 339 -152 476 -198 122 -41 236 -10 288 80 l27 45 -4 415 c-1 228 -5 417 -6 419 -2 2 -55 -5 -117 -14 -153 -23 -408 -31 -535 -16 -267 31 -451 116 -599 274 -70 75 -88 106 -197 337 -62 129 -165 292 -251 392 -37 45 -89 89 -154 131 -147 98 -203 166 -183 220 9 22 33 36 88 52 38 11 185 7 238 -6 190 -46 362 -187 523 -428 161 -242 316 -363 537 -422 158 -41 382 -25 573 42 100 36 112 43 112 74 0 34 36 167 66 241 36 92 84 170 139 232 44 49 45 52 23 56 -13 2 -97 16 -188 30 -751 118 -1227 428 -1484 966 -124 260 -184 522 -207 902 -31 505 82 892 360 1241 l63 79 -26 91 c-68 246 -73 475 -15 744 22 101 72 258 90 279 17 21 153 18 269 -6 231 -47 479 -158 796 -356 l100 -63 95 25 c126 32 323 69 494 91 176 22 708 25 880 5 166 -20 386 -59 518 -91 l118 -30 97 63 c287 186 584 319 805 361 82 16 234 20 253 7 7 -4 28 -54 47 -112 103 -306 114 -642 32 -924 l-26 -89 29 -31 c135 -145 272 -396 335 -616 59 -202 78 -447 58 -721 -40 -546 -190 -944 -471 -1248 l-66 -71 920 2 919 3 19 55 c70 201 151 600 180 875 19 191 16 661 -6 850 -33 285 -80 516 -157 772 -329 1096 -1117 2030 -2149 2548 -664 333 -1433 487 -2175 434z" style="fill: rgb(21, 113, 2);"/>
    <path d="M4891 2889 c-174 -34 -329 -188 -366 -366 -22 -100 -22 -1686 0 -1786 38 -182 191 -332 374 -367 73 -14 3437 -14 3512 0 183 34 344 195 379 379 14 73 14 1689 0 1762 -35 184 -196 345 -379 379 -67 12 -3456 12 -3520 -1z m3509 -322 c30 -16 51 -37 67 -67 l23 -43 0 -827 0 -827 -23 -43 c-16 -30 -37 -51 -67 -67 l-43 -23 -1700 0 c-1700 0 -1701 0 -1743 21 -26 12 -53 36 -66 57 l-23 37 0 845 0 845 23 37 c13 20 41 45 65 57 l42 21 1701 0 1701 0 43 -23z" style="fill: rgb(66, 184, 20);"/>
    <path d="M5520 2086 c-138 -40 -236 -137 -283 -280 -29 -90 -29 -257 0 -351 68 -218 294 -340 520 -282 l51 14 33 -43 34 -43 88 -1 88 0 -60 74 c-34 41 -61 78 -61 81 0 4 14 23 31 43 68 77 109 202 109 332 0 205 -80 349 -236 426 -67 34 -83 37 -172 40 -60 2 -114 -2 -142 -10z m229 -176 c48 -24 75 -55 103 -115 20 -43 23 -66 23 -165 0 -104 -3 -120 -27 -172 -15 -32 -31 -58 -36 -58 -4 0 -21 18 -38 40 l-29 40 -79 0 -78 0 26 -35 c14 -19 38 -51 53 -71 22 -30 24 -37 12 -45 -21 -14 -97 -1 -149 25 -143 71 -174 387 -50 514 68 71 180 88 269 42z" style="fill: rgb(29, 187, 38);"/>
    <path d="M6290 1630 l0 -470 290 0 290 0 0 75 0 75 -195 0 -195 0 0 395 0 395 -95 0 -95 0 0 -470z" style="fill: rgb(29, 187, 38);"/>
    <path d="M7292 2080 c-48 -29 -72 -75 -72 -137 0 -47 4 -58 36 -93 50 -56 84 -62 300 -58 167 3 185 5 211 24 97 72 98 205 1 264 -30 18 -51 20 -238 20 -187 0 -208 -2 -238 -20z" style="fill: rgb(29, 187, 38);"/>
    <path d="M7325 1460 c-17 -5 -46 -25 -65 -45 -29 -30 -34 -43 -37 -92 -5 -68 16 -111 69 -143 31 -19 51 -20 399 -20 363 0 366 0 399 23 94 63 92 190 -3 261 -27 20 -40 21 -380 23 -194 1 -366 -2 -382 -7z" style="fill: rgb(29, 187, 38);"/>
  </g>
</svg>