<svg version="1.1" id="Layer_1" xmlns="http://www.w3.org/2000/svg" xmlns:xlink="http://www.w3.org/1999/xlink" x="0px" y="0px"
     width="100%" viewBox="0 0 1024 1024" enable-background="new 0 0 1024 1024" xml:space="preserve">
<path fill="#30d464" opacity="1.000000" stroke="none" 
    d="
M350.459900,630.686768 
    C321.595398,627.255188 293.171875,623.926453 264.752563,620.562317 
    C250.377411,618.860657 236.022980,616.971680 221.630539,615.435852 
    C217.516571,614.996826 215.868668,613.551758 215.872803,609.233521 
    C215.982758,494.401520 215.983582,379.569427 216.022232,264.737335 
    C216.024277,258.669800 216.530823,258.358032 222.357300,260.010803 
    C230.686874,262.373535 239.014801,264.742462 247.354370,267.069519 
    C252.461960,268.494751 253.617050,267.682159 253.662750,262.222351 
    C253.758972,250.723236 253.708633,239.222885 253.717926,227.723053 
    C253.719376,225.923264 253.718124,224.123459 253.718124,222.681519 
    C255.630066,221.126266 257.010895,221.982864 258.407928,222.391220 
    C267.996979,225.194153 277.635742,227.839737 287.156555,230.857651 
    C291.353821,232.188095 292.894684,231.392914 292.814789,226.783981 
    C292.604034,214.620911 292.702850,202.452103 292.729980,190.285690 
    C292.733948,188.501144 292.276367,186.610794 293.415985,184.987595 
    C294.991394,184.146042 296.366333,184.866577 297.753845,185.390778 
    C332.019928,198.336807 366.986023,209.462769 400.331787,224.801285 
    C409.870758,229.189056 419.207214,233.966827 428.319550,239.200562 
    C432.029907,241.331650 432.218292,243.229050 429.592834,246.597885 
    C422.286346,255.973175 422.491211,255.950180 411.852051,250.247696 
    C385.925629,236.351410 358.439575,226.137283 330.804596,216.308685 
    C324.419617,214.037842 318.239929,211.085220 311.673523,209.860138 
    C309.818146,211.317200 310.304474,213.112488 310.302582,214.696930 
    C310.264923,246.363205 310.319305,278.029755 310.191467,309.695587 
    C310.176758,313.337250 311.735199,315.527344 314.395386,317.602661 
    C324.511780,325.494934 334.436676,333.635559 344.639221,341.412964 
    C348.025940,343.994629 349.418701,346.777954 349.382538,351.075256 
    C349.189087,374.073395 349.446808,397.076019 349.165405,420.072357 
    C349.097321,425.636414 350.769775,429.012177 355.843323,431.480560 
    C363.925385,435.412750 371.636810,440.098999 379.622925,444.238800 
    C385.295929,447.179504 385.786102,452.583282 387.432648,457.603058 
    C385.293091,458.423859 384.206909,457.476196 383.067596,456.863373 
    C370.155579,449.918030 357.304779,442.856293 344.315796,436.058502 
    C340.901031,434.271393 339.623840,432.032562 339.647003,428.193787 
    C339.793793,403.861542 339.649719,379.527496 339.813873,355.195496 
    C339.840393,351.269165 338.572021,348.639221 335.484833,346.333160 
    C329.078308,341.547516 322.891663,336.468384 316.563568,331.576050 
    C315.153839,330.486176 313.872467,329.031494 311.805206,328.997467 
    C309.757568,330.152313 310.319427,332.176270 310.318970,333.892883 
    C310.302734,395.558868 310.360626,457.224945 310.255066,518.890747 
    C310.248199,522.912537 312.513672,523.894653 315.457336,524.994629 
    C334.644348,532.164062 353.846344,539.270996 372.715851,547.287354 
    C403.971039,560.565674 433.837433,576.209167 460.984344,596.773193 
    C462.762573,598.120239 464.309021,600.057251 466.949432,600.106812 
    C467.372620,598.195312 466.183716,596.862427 465.459839,595.464233 
    C456.575409,578.302979 447.604797,561.186218 438.746918,544.011353 
    C437.453796,541.504089 435.700745,539.760681 433.169373,538.582703 
    C408.399445,527.055786 383.628937,515.529541 358.916016,503.881348 
    C356.193024,502.597900 354.145477,502.796112 351.514587,504.206604 
    C343.967438,508.252747 334.977997,505.112885 331.793762,497.653748 
    C328.517883,489.979889 332.383087,481.412170 340.384674,478.610962 
    C348.282806,475.845978 356.199554,480.267181 358.166534,489.037628 
    C358.984772,492.686035 361.151855,494.347198 364.124908,495.738007 
    C389.171448,507.454803 414.180511,519.252319 439.274017,530.867432 
    C442.832611,532.514587 445.034424,534.859497 446.812561,538.316772 
    C460.604492,565.132568 474.563019,591.862915 488.513611,618.596863 
    C492.034180,625.343506 498.104797,629.959167 503.066040,636.308533 
    C504.659668,632.759888 504.595367,629.669006 504.600403,626.588196 
    C504.664673,587.102783 504.479034,547.614990 504.858765,508.132660 
    C505.357330,456.294983 485.285431,414.132965 446.341339,380.415314 
    C431.559357,367.617188 415.728638,356.273956 399.414337,345.595184 
    C395.495178,343.029846 394.560028,340.754395 396.021423,336.269592 
    C405.640259,306.750153 421.066406,280.485962 439.715912,255.855515 
    C459.716675,229.440491 482.253815,205.456665 507.037933,183.528946 
    C512.826538,178.407516 512.774231,178.456833 518.455811,183.398743 
    C543.057861,204.797791 564.890076,228.715286 585.134094,254.284958 
    C593.849243,265.292786 590.278564,273.526794 584.073975,281.551514 
    C573.340332,295.433777 560.209351,307.110596 547.934509,319.566650 
    C538.449341,329.191833 529.065552,338.886200 521.674500,350.287903 
    C511.468262,366.032532 505.437775,383.000885 506.154541,402.064545 
    C506.442383,409.719727 506.139282,417.395935 506.199890,425.061798 
    C506.213501,426.783661 505.507568,428.744751 508.153412,430.948456 
    C511.222351,421.545074 520.216125,415.792328 519.910828,404.680023 
    C519.293457,382.210083 527.439697,362.653137 541.842834,345.632935 
    C555.213989,329.832245 570.678894,316.044067 585.023132,301.175995 
    C590.270264,295.737244 594.932739,289.947632 598.946045,283.588867 
    C599.736572,282.336456 600.384583,280.969177 601.701477,280.314331 
    C603.507874,280.351501 604.061707,281.706512 604.738770,282.787476 
    C625.003906,315.137268 638.056946,349.858398 638.239563,388.491882 
    C638.432434,429.292816 624.429321,464.980988 598.548096,496.355225 
    C581.349854,517.203735 560.960999,534.545532 540.052795,551.396423 
    C537.205383,553.691345 534.536072,556.215576 531.866577,558.721375 
    C525.216309,564.964111 521.585632,572.771912 521.504883,581.794617 
    C521.352905,598.773926 521.685669,615.757629 521.850525,632.739258 
    C521.859741,633.690125 522.172913,634.638123 522.543884,636.689331 
    C528.049194,630.291504 533.987793,625.419250 537.565918,618.587891 
    C551.093994,592.759583 564.572693,566.904663 577.901367,540.973083 
    C580.513550,535.890808 583.801758,532.197021 589.193970,529.738037 
    C613.291016,518.749023 637.197327,507.342346 661.218628,496.185760 
    C664.745667,494.547638 667.033203,492.629974 667.906067,488.394928 
    C669.518982,480.569275 677.892944,476.138123 685.313660,478.469635 
    C693.114136,480.920502 697.183350,488.978455 694.585632,496.830658 
    C692.126038,504.265625 683.622131,508.537659 676.406921,504.885864 
    C671.681152,502.493958 668.135132,503.289124 663.920532,505.290039 
    C640.747803,516.291687 617.539917,527.220459 594.270081,538.014771 
    C590.879456,539.587585 588.685547,541.779297 586.987366,545.065552 
    C577.291504,563.828491 567.422852,582.502197 558.228271,601.694275 
    C566.699097,595.661377 574.969666,589.321228 583.675964,583.649780 
    C617.813599,561.411865 655.042297,545.607605 693.115112,531.603333 
    C699.211182,529.361023 705.226868,526.898376 711.336365,524.694763 
    C714.401855,523.589111 715.722229,521.825806 715.714722,518.409241 
    C715.609436,470.576630 715.629517,422.743805 715.594482,374.911011 
    C715.593079,372.953278 715.708923,370.907745 713.967163,368.881500 
    C704.780151,374.181213 696.372864,380.644653 687.880859,386.970947 
    C686.059265,388.328033 686.335693,390.539917 686.333313,392.532867 
    C686.318542,404.699371 686.261169,416.866302 686.354187,429.032074 
    C686.376831,431.986481 685.571777,434.158813 682.861084,435.606110 
    C668.901123,443.059631 654.974182,450.574951 641.016235,458.032288 
    C640.503906,458.306000 639.789246,458.200989 638.482056,458.351685 
    C640.359070,451.883911 641.546936,446.071869 648.438904,443.024811 
    C656.187988,439.598846 663.389282,434.954559 671.012939,431.215576 
    C675.299988,429.113007 676.993164,426.359283 676.842651,421.479218 
    C676.488403,409.990356 676.818298,398.481995 676.682739,386.983765 
    C676.643372,383.647888 677.690063,381.459076 680.556641,379.557770 
    C690.968994,372.651489 701.146851,365.391815 711.549744,358.470795 
    C714.518799,356.495483 715.751648,354.258575 715.692810,350.669250 
    C715.384399,331.855774 715.134033,313.038574 715.156006,294.223022 
    C715.186035,268.562408 715.493225,242.902130 715.638916,217.241455 
    C715.652710,214.812546 716.003845,212.289322 714.827881,209.717484 
    C709.589050,210.457138 705.145691,212.800125 700.526306,214.486847 
    C670.958069,225.283356 641.174072,235.552765 613.331665,250.552765 
    C602.922302,256.160797 602.963989,255.866333 595.923218,246.260010 
    C593.400635,242.818237 594.302307,241.170853 597.560242,239.339874 
    C615.309631,229.364273 633.642822,220.582428 652.641418,213.317535 
    C677.376526,203.859024 702.295837,194.881790 727.152893,185.743851 
    C728.816101,185.132416 730.459229,184.021179 732.456665,184.746490 
    C733.826721,186.294647 733.294067,188.210114 733.300293,189.973572 
    C733.343872,202.306473 733.425110,214.641083 733.257141,226.971909 
    C733.198914,231.249542 734.576843,232.208969 738.621277,230.910294 
    C747.974609,227.906815 757.431152,225.224823 766.846008,222.413025 
    C768.408081,221.946518 769.915161,221.032150 772.179382,222.012924 
    C773.528320,236.970093 771.540710,252.233521 772.658203,267.355621 
    C775.114136,268.629730 777.112854,267.484467 779.122070,266.919250 
    C787.296692,264.619568 795.447266,262.233765 803.626770,259.951782 
    C809.465454,258.322815 809.990356,258.714264 809.998657,264.728027 
    C810.033325,289.894165 810.033325,315.060394 810.041748,340.226562 
    C810.071655,429.558807 810.052429,518.891174 810.246399,608.223022 
    C810.257996,613.562744 808.586487,615.484497 803.399048,616.021423 
    C781.553528,618.282288 759.731689,620.783203 737.920288,623.359009 
    C708.832153,626.794006 679.766724,630.421265 650.682190,633.888000 
    C629.529663,636.409119 608.358582,638.774658 587.203003,641.270447 
    C579.437622,642.186523 571.698181,643.322144 563.935486,644.262756 
    C561.485779,644.559570 559.589172,645.885071 557.652222,647.152344 
    C544.267700,655.909607 530.841492,664.606079 517.579895,673.546387 
    C514.163879,675.849182 511.619843,675.841309 508.188538,673.472412 
    C495.575348,664.764465 482.564362,656.626404 470.059906,647.770020 
    C463.244904,642.943359 455.481049,643.484314 448.045685,642.497070 
    C421.157532,638.927002 394.211731,635.789978 367.283478,632.524292 
    C361.832642,631.863220 356.363403,631.354065 350.459900,630.686768 
M271.280701,383.499969 
    C271.280701,437.558136 271.280701,491.616333 271.280701,545.672791 
    C274.186523,545.812439 275.058411,544.206238 276.187500,543.089172 
    C280.451630,538.870361 284.513489,534.433777 288.946136,530.403259 
    C291.797485,527.810669 292.738129,524.978760 292.735138,521.184387 
    C292.667145,435.361420 292.761414,349.538300 292.680389,263.715363 
    C292.666595,249.097015 295.225739,251.963287 280.545990,247.402603 
    C279.909882,247.204971 279.277527,246.995102 278.644073,246.788940 
    C271.582672,244.490631 271.273895,244.694443 271.273285,252.015503 
    C271.269501,295.510315 271.276245,339.005127 271.280701,383.499969 
M748.800171,246.406906 
    C745.953552,247.342072 743.166016,248.583237 740.247620,249.147125 
    C734.591797,250.240005 733.159729,253.416931 733.172363,259.018311 
    C733.358521,341.452026 733.727905,423.890259 732.932861,506.316650 
    C732.788208,521.313110 735.962280,532.742432 748.150940,541.355408 
    C750.191162,542.797119 751.241516,545.611511 754.773987,546.222717 
    C754.773987,543.622681 754.773621,541.492371 754.774048,539.362061 
    C754.780579,505.222687 754.789734,471.083344 754.793213,436.943970 
    C754.799438,375.160065 754.805664,313.376129 754.801636,251.592224 
    C754.801208,245.076569 754.699036,245.004471 748.800171,246.406906 
M234.175583,471.500000 
    C234.175583,508.846649 234.175583,546.193298 234.175583,583.539978 
    C234.719528,583.779053 235.263474,584.018127 235.807419,584.257202 
    C240.248489,579.544312 244.496841,574.627380 249.196594,570.188354 
    C252.482269,567.084961 253.796463,563.791626 253.787537,559.241150 
    C253.656738,492.586212 253.689682,425.930939 253.688828,359.275726 
    C253.688538,337.279510 253.703064,315.283264 253.710434,293.287048 
    C253.711380,290.430023 253.975876,287.457153 250.309387,286.390533 
    C246.311981,285.227631 242.326981,284.022217 238.334106,282.843689 
    C235.498260,282.006683 234.232819,283.248016 234.168320,286.032562 
    C234.137451,287.365021 234.117325,288.698120 234.117737,290.030914 
    C234.136017,350.187286 234.157074,410.343628 234.175583,471.500000 
M772.362305,498.500000 
    C772.341431,519.165771 772.311340,539.831604 772.313416,560.497375 
    C772.313660,562.625793 771.810181,564.937805 773.497925,566.703735 
    C779.092896,572.557678 784.740234,578.361694 791.341919,585.193237 
    C791.341919,483.284515 791.341919,383.140289 791.341919,282.307434 
    C786.940369,283.420624 783.156006,284.674042 779.270569,285.289337 
    C773.769653,286.160522 772.203918,288.974609 772.220215,294.510193 
    C772.418945,362.173035 772.358276,429.836609 772.362305,498.500000 
M772.759094,601.214355 
    C775.329224,600.399902 778.333679,601.207458 781.034424,599.268616 
    C774.427185,592.596680 768.112305,586.239014 761.823364,579.855896 
    C760.325317,578.335449 758.680664,578.578247 756.762878,578.892029 
    C716.967346,585.404480 677.809265,594.547729 639.497070,607.189087 
    C628.070129,610.959412 616.838684,615.245789 605.775757,619.942810 
    C605.881409,620.371399 605.987000,620.799927 606.092651,621.228516 
    C661.365845,614.619568 716.639099,608.010681 772.759094,601.214355 
M619.977173,595.378357 
    C660.008728,580.807129 701.287659,570.841370 744.593811,562.656311 
    C737.407593,555.438965 731.216064,549.459473 725.327026,543.195557 
    C722.758911,540.464050 720.334595,539.998779 716.928406,541.333252 
    C705.299072,545.889282 693.594788,550.254517 681.910767,554.670471 
    C646.244263,568.150208 612.094177,584.570801 581.015747,606.896484 
    C577.240723,609.608276 573.024963,611.926941 570.564758,616.298096 
    C586.757996,609.227783 602.507324,601.268494 619.977173,595.378357 
M249.771530,600.814148 
    C268.244659,603.093445 286.711060,605.428955 305.192474,607.638916 
    C332.421265,610.894836 359.657318,614.090576 386.897400,617.250732 
    C397.369019,618.465515 407.860107,619.512390 419.533478,620.763367 
    C416.889862,618.160767 414.625122,617.539551 412.548859,616.725525 
    C366.203247,598.554077 318.088989,587.060486 269.116425,578.815979 
    C267.598175,578.560364 266.043518,578.255066 264.852386,579.423462 
    C258.142242,586.005310 251.485733,592.641846 244.844360,599.226562 
    C246.279419,601.011169 247.747910,600.448853 249.771530,600.814148 
M397.511841,578.080627 
    C368.707947,563.328552 338.273163,552.522644 308.098663,541.081970 
    C305.214050,539.988281 303.129761,540.518311 301.010376,542.789795 
    C296.017456,548.140930 290.798279,553.280518 285.702332,558.536316 
    C284.691406,559.578979 283.408356,560.559753 283.986694,562.996338 
    C342.780426,574.803223 401.179016,588.958557 455.625122,616.068176 
    C438.193970,600.711365 418.600189,588.918701 397.511841,578.080627 
M680.683777,487.721161 
    C677.748413,488.598358 676.838318,490.700287 677.429993,493.487762 
    C677.809875,495.277130 679.188232,496.303986 680.958130,496.522949 
    C683.057434,496.782623 684.602844,495.537933 685.231750,493.778229 
    C686.467896,490.319092 684.544373,488.517914 680.683777,487.721161 
M347.641846,495.001099 
    C349.262726,492.769592 349.287323,490.605774 346.964691,488.930511 
    C345.175323,487.639893 343.151001,487.648682 341.537201,489.328369 
    C340.098755,490.825592 339.989777,492.640472 341.240784,494.323425 
    C342.807434,496.431061 344.699310,497.474823 347.641846,495.001099 
z"/>
<path fill="#30d464" opacity="1.000000" stroke="none" 
    d="
M436.270599,506.706848 
    C419.586395,488.250031 405.921692,468.347260 397.445770,445.095490 
    C387.516846,417.857758 385.460114,390.000458 390.058289,361.519073 
    C390.190399,360.700714 390.426971,359.891724 390.694855,359.105682 
    C390.848755,358.654083 391.163940,358.257507 391.349030,357.936035 
    C392.522003,357.397949 393.433228,357.800232 394.279877,358.362274 
    C419.909698,375.376892 444.619843,393.583313 463.194489,418.526947 
    C479.450317,440.356750 488.613373,465.010681 490.504974,492.416168 
    C491.861450,512.068237 490.884705,531.701599 491.299042,551.337952 
    C491.319153,552.291626 491.028809,553.251831 490.703033,555.390381 
    C471.283997,539.967468 452.882629,524.631165 436.270599,506.706848 
z"/>
<path fill="#30d464" opacity="1.000000" stroke="none" 
    d="
M483.185089,743.809998 
    C481.264313,741.572937 480.012939,739.147278 477.578125,737.915527 
    C475.674408,739.564819 476.343323,741.527100 476.330566,743.256958 
    C476.260681,752.751038 476.045380,762.255005 476.389618,771.737000 
    C476.588593,777.218323 473.377197,776.995422 469.669708,777.002930 
    C465.953979,777.010498 462.721436,777.198792 462.777588,771.788452 
    C462.962463,753.967224 462.790680,736.142639 462.890503,718.320007 
    C462.903076,716.072693 461.537720,712.542969 465.021301,712.027954 
    C468.576447,711.502319 472.716614,710.181396 475.743927,713.826904 
    C481.913757,721.256836 488.089569,728.682007 494.229034,736.136963 
    C498.447449,741.259338 502.608765,746.428650 506.896088,751.700562 
    C508.380920,750.046509 507.806244,748.312134 507.819611,746.764648 
    C507.906036,736.771057 507.994965,726.775085 507.853058,716.783142 
    C507.802063,713.192749 508.985229,711.442932 512.715820,711.708923 
    C514.372070,711.826965 516.046814,711.744141 517.710571,711.682312 
    C520.205139,711.589600 521.339661,712.682190 521.336548,715.241577 
    C521.312866,734.730225 521.341248,754.218811 521.363159,773.707458 
    C521.364746,775.125977 521.142578,776.262512 519.535706,776.829956 
    C515.603577,778.218628 509.722107,776.578125 506.989746,773.204712 
    C499.128265,763.498840 491.266510,753.793213 483.185089,743.809998 
z"/>
<path fill="#30d464" opacity="1.000000" stroke="none" 
    d="
M703.057983,762.079956 
    C703.669556,745.172729 702.499451,728.709961 703.957764,711.600525 
    C717.623657,712.661316 731.288574,709.580811 744.695679,713.502197 
    C760.037842,717.989624 768.825623,731.632812 767.165100,748.048950 
    C765.611389,763.408447 754.321106,774.593689 738.791504,776.302490 
    C728.485168,777.436584 718.154358,776.799011 707.834534,776.970825 
    C704.736572,777.022400 703.170349,775.695251 703.162537,772.556946 
    C703.154297,769.225098 703.096924,765.893311 703.057983,762.079956 
M750.149597,732.457275 
    C746.027954,726.614258 740.346375,723.617615 733.246399,723.364441 
    C729.424500,723.228149 725.587646,723.439270 721.771362,723.235413 
    C718.264771,723.048096 717.063232,724.567261 717.118347,727.942810 
    C717.243286,735.592834 717.155396,743.246399 717.135925,750.898560 
    C717.099365,765.261475 717.094055,765.261414 731.433960,764.909363 
    C749.826965,764.457703 758.825562,749.473572 750.149597,732.457275 
z"/>
<path fill="#30d464" opacity="1.000000" stroke="none" 
    d="
M273.783630,772.671204 
    C273.751465,754.043457 273.894196,735.882568 273.609192,717.728333 
    C273.531677,712.789062 275.219147,711.428345 279.917023,711.592102 
    C288.735596,711.899475 297.578705,711.467773 306.400635,711.723022 
    C322.559723,712.190491 333.087921,727.246826 328.205688,742.571960 
    C326.441284,748.110352 322.469513,751.796936 317.411957,755.083130 
    C320.922272,762.596252 326.669922,768.516357 330.409271,775.671692 
    C322.116943,779.008301 316.705841,777.569275 312.110260,771.058411 
    C311.053619,769.561401 309.621887,768.216492 308.974762,766.562256 
    C305.900726,758.704407 299.660126,757.180725 292.158417,757.437378 
    C288.848633,757.550598 287.154297,758.439941 287.303131,762.011169 
    C287.455597,765.669189 287.235443,769.341370 287.320343,773.004028 
    C287.384460,775.771606 286.032318,777.290771 283.437042,776.893433 
    C280.005310,776.368042 274.965576,779.548828 273.783630,772.671204 
M288.365173,745.254456 
    C293.271118,746.578003 298.265900,745.833862 303.211121,745.765991 
    C310.514526,745.665771 315.456482,741.151794 315.605621,734.853210 
    C315.750183,728.749512 310.657928,723.828125 303.516907,723.418457 
    C299.708557,723.199890 295.877930,723.401917 292.061188,723.286743 
    C288.903320,723.191406 287.400330,724.723572 287.420654,727.749756 
    C287.458405,733.375244 286.835327,739.017395 288.365173,745.254456 
z"/>
<path fill="#30d464" opacity="1.000000" stroke="none" 
    d="
M623.295593,738.685608 
    C627.171631,718.884338 644.305725,707.521790 664.484314,711.009033 
    C683.858337,714.357239 695.487976,731.148682 692.220642,751.055908 
    C689.265137,769.063293 671.839478,780.241394 651.388123,777.248657 
    C632.414551,774.472290 620.838562,758.810486 623.295593,738.685608 
M660.781128,765.459534 
    C661.750305,765.217163 662.731873,765.015869 663.686584,764.725952 
    C671.719177,762.286926 677.043335,756.960510 678.515076,748.782349 
    C680.083618,740.066101 678.087830,732.007263 670.281311,726.712097 
    C662.948547,721.738342 655.034912,721.235046 647.157898,725.590149 
    C638.404724,730.429688 634.587463,740.135071 637.347229,749.968384 
    C640.240967,760.279236 648.437927,765.938354 660.781128,765.459534 
z"/>
<path fill="#30d464" opacity="1.000000" stroke="none" 
    d="
M824.431763,776.735535 
    C810.008972,776.875488 796.030945,776.914795 782.053101,776.984985 
    C779.232910,776.999146 777.102478,776.353027 777.098511,772.921143 
    C777.075317,752.806519 776.971924,732.691162 777.817200,712.729797 
    C779.182373,711.321838 780.764221,711.710144 782.205505,711.706360 
    C795.020325,711.672363 807.846680,712.006836 820.645813,711.556396 
    C827.573547,711.312622 825.189514,716.143555 825.690796,719.295532 
    C826.325562,723.287048 823.374817,723.321716 820.529907,723.304321 
    C812.541565,723.255554 804.548828,723.418579 796.566162,723.196655 
    C792.530457,723.084412 790.583862,724.449524 790.979614,728.618286 
    C791.073486,729.606812 791.079712,730.628662 790.943054,731.609741 
    C790.282532,736.352722 792.158936,738.230347 797.049133,737.966492 
    C803.188904,737.635254 809.360535,737.917236 815.518188,737.886780 
    C818.757751,737.870728 821.924255,737.367798 821.539246,742.543030 
    C821.241760,746.543152 821.939758,750.047974 815.793823,749.489868 
    C809.191895,748.890442 802.489075,749.491394 795.836182,749.327698 
    C792.282349,749.240234 790.748291,750.308899 790.867493,754.162292 
    C791.239014,766.173889 789.608337,764.813232 801.582581,764.886353 
    C808.072998,764.925964 814.565247,764.833679 821.053833,764.952698 
    C823.224792,764.992554 826.481262,764.099243 826.840881,767.236511 
    C827.199951,770.368713 828.897339,774.250183 824.431763,776.735535 
z"/>
<path fill="#30d464" opacity="1.000000" stroke="none" 
    d="
M354.612732,763.293396 
    C356.183014,765.362793 358.131134,764.868591 359.901123,764.875061 
    C368.391998,764.906006 376.886383,764.999023 385.372711,764.792236 
    C389.395813,764.694214 391.200256,766.057129 391.046783,770.240173 
    C390.909821,773.971863 391.029602,777.226196 385.722351,777.140930 
    C372.406067,776.927185 359.084869,776.973999 345.765869,777.007324 
    C342.266602,777.016052 340.672852,775.754211 340.696869,772.011292 
    C340.815369,753.531616 340.818695,735.050232 340.698029,716.570557 
    C340.673950,712.884460 342.014526,711.597717 345.660126,711.636353 
    C358.645020,711.773743 371.635010,711.844788 384.617157,711.611084 
    C389.547546,711.522339 389.268890,714.434265 389.371521,717.759521 
    C389.478241,721.216431 389.000122,723.553101 384.622864,723.400330 
    C377.305420,723.145081 369.973938,723.291016 362.648346,723.271179 
    C354.266327,723.248474 354.266449,723.250000 354.307434,731.841431 
    C354.309814,732.340881 354.356384,732.845947 354.300079,733.338989 
    C353.890961,736.922668 355.697144,737.970581 359.016754,737.905518 
    C366.173157,737.765259 373.340149,738.032104 380.490936,737.786316 
    C385.268768,737.621948 385.287750,740.430725 385.348480,743.896790 
    C385.410278,747.423157 384.821228,749.606445 380.513245,749.431702 
    C374.030762,749.168701 367.529663,749.347412 361.036591,749.370483 
    C354.305237,749.394409 354.290222,749.411133 354.301331,755.908569 
    C354.305298,758.237000 354.401428,760.565247 354.612732,763.293396 
z"/>
<path fill="#30d464" opacity="1.000000" stroke="none" 
    d="
M448.632019,722.933838 
    C439.035217,723.159424 429.879730,723.367310 420.730469,723.210999 
    C416.588715,723.140198 414.871033,724.689392 415.278198,728.774841 
    C415.409637,730.093262 415.422760,731.451965 415.265533,732.765320 
    C414.787140,736.760742 416.618073,738.036560 420.445343,737.924011 
    C426.932007,737.733154 433.436890,738.097717 439.919189,737.845032 
    C444.334961,737.672852 446.546356,738.519287 446.535950,743.762695 
    C446.525940,748.822693 444.343597,749.541870 440.195312,749.413940 
    C433.542511,749.208862 426.875366,749.492676 420.220520,749.323364 
    C416.550934,749.229980 415.198242,750.636230 415.267670,754.309387 
    C415.496429,766.410645 414.023041,764.817078 425.453735,764.919495 
    C432.611603,764.983643 439.776917,765.068787 446.927368,764.817261 
    C451.993164,764.639038 451.957092,767.815552 452.062775,771.352905 
    C452.167450,774.855164 451.409210,777.085999 447.184631,777.044556 
    C433.701080,776.912170 420.215240,776.956360 406.730682,777.023438 
    C403.155090,777.041199 401.696686,775.577454 401.714691,771.932983 
    C401.806061,753.454041 401.820343,734.973816 401.673981,716.495483 
    C401.644196,712.735229 403.065308,711.598145 406.657593,711.639099 
    C418.809143,711.777649 430.963318,711.675354 443.116486,711.681824 
    C450.616669,711.685852 450.954346,712.080872 450.314606,719.659546 
    C450.215424,720.834290 450.172089,722.003113 448.632019,722.933838 
z"/>
<path fill="#30d464" opacity="1.000000" stroke="none" 
    d="
M243.916351,711.660828 
    C249.330444,713.160400 254.034882,715.164062 258.135956,718.461670 
    C260.794220,720.599182 260.949646,722.569702 258.478180,725.070068 
    C253.624573,729.980469 253.116974,730.135010 247.565552,726.533936 
    C237.481079,719.992310 223.058197,722.425598 216.193161,731.826660 
    C209.905884,740.436584 211.774628,753.636414 220.349075,760.629028 
    C225.084000,764.490356 230.638474,766.002075 236.664444,765.609680 
    C245.272873,765.049072 246.929291,763.215393 246.945251,754.709595 
    C246.947449,753.544495 246.948288,752.379333 246.953598,751.214233 
    C246.993179,742.520691 247.602661,742.062073 256.471741,742.827637 
    C259.164856,743.060120 260.360321,744.105286 260.330658,746.825928 
    C260.260010,753.316467 260.295105,759.808228 260.307007,766.299500 
    C260.310242,768.061707 259.726410,769.422607 258.340485,770.644775 
    C242.151215,784.921326 210.245514,777.921021 201.578079,758.149414 
    C192.081039,736.485291 206.534363,712.431213 230.095306,710.798035 
    C234.571915,710.487732 239.083618,710.435913 243.916351,711.660828 
z"/>
<path fill="#30d464" opacity="1.000000" stroke="none" 
    d="
M567.378174,768.645447 
    C556.772400,757.231018 554.509338,744.343262 560.268860,730.517090 
    C566.028015,716.691956 577.337219,710.855835 592.014587,710.635193 
    C600.699036,710.504639 608.399048,712.899292 615.168152,718.322510 
    C617.997620,720.589355 618.550537,722.468323 615.540222,725.524109 
    C611.904907,729.214417 609.598877,730.625977 604.594788,726.779785 
    C595.661133,719.913269 583.224304,721.949585 576.215454,730.186584 
    C569.008972,738.655823 569.416077,751.122009 577.166016,759.295410 
    C584.520935,767.052185 596.791626,767.825806 605.861267,761.104492 
    C609.939819,758.081970 616.018555,760.125671 617.714722,765.118103 
    C618.483887,767.382080 616.642578,768.565613 615.375488,769.656494 
    C606.062317,777.674011 595.170044,779.156433 583.524536,776.843445 
    C577.544434,775.655762 572.215515,772.981934 567.378174,768.645447 
z"/>
<path fill="#30d464" opacity="1.000000" stroke="none" 
    d="
M666.449951,354.449280 
    C661.427063,359.253540 657.675781,364.856049 652.232361,368.824890 
    C648.470703,363.037201 648.702637,359.001404 652.987671,354.473450 
    C659.854065,347.217834 666.717834,339.957886 673.707153,332.821686 
    C675.839661,330.644318 676.801941,328.333649 676.778015,325.276245 
    C676.675049,312.119720 676.683838,298.961426 676.786621,285.804810 
    C676.810608,282.745392 675.988342,280.588867 673.433838,278.585114 
    C666.553833,273.188568 665.786499,263.694977 671.418579,257.963837 
    C676.921570,252.364090 686.277649,252.422699 691.597534,258.090271 
    C697.268127,264.131439 696.536743,273.463715 689.640930,278.696350 
    C687.038330,280.671265 686.248962,282.840088 686.269531,285.901672 
    C686.364441,300.057709 686.185547,314.216583 686.389526,328.370300 
    C686.447266,332.376404 685.200500,335.413696 682.448730,338.154327 
    C677.138977,343.442444 671.940613,348.842468 666.449951,354.449280 
z"/>
<path fill="#30d464" opacity="1.000000" stroke="none" 
    d="
M409.920135,802.640015 
    C425.281708,807.684692 427.528778,819.609558 415.646362,831.971619 
    C417.273438,836.878723 421.823029,840.353699 423.390533,845.487610 
    C415.821198,847.428589 414.383759,846.916748 410.484833,841.197388 
    C409.360229,839.547607 408.190887,837.928467 407.058929,836.283630 
    C404.631958,832.757202 401.025940,832.944153 397.602203,833.735779 
    C394.152985,834.533325 395.359009,837.748047 395.276794,840.048035 
    C395.060852,846.087402 394.446198,846.733093 389.266418,846.383545 
    C386.786621,846.216125 385.668945,845.266724 385.675232,842.736572 
    C385.705963,830.419250 385.686981,818.101746 385.633453,805.784424 
    C385.622925,803.356323 386.559326,801.944275 389.092743,801.976379 
    C395.901276,802.062622 402.737183,801.211426 409.920135,802.640015 
M409.446808,824.155579 
    C413.019928,822.103333 414.062744,818.965942 412.704620,815.265320 
    C411.170532,811.085083 399.659637,808.168701 396.246216,810.951477 
    C395.785187,811.327271 395.501038,812.020081 395.318115,812.621826 
    C392.329224,822.452881 396.885132,827.363403 406.854187,825.071228 
    C407.499146,824.922913 408.122955,824.682678 409.446808,824.155579 
z"/>
<path fill="#30d464" opacity="1.000000" stroke="none" 
    d="
M348.076965,263.486877 
    C353.997437,265.427246 357.551270,269.031952 358.281464,274.948334 
    C358.634521,277.809174 360.718628,278.658722 362.871063,279.610474 
    C372.591797,283.908691 382.326965,288.175476 392.008270,292.560944 
    C394.700653,293.780579 398.347443,294.278961 396.311096,299.138580 
    C394.378571,303.750397 391.873657,303.394165 388.150513,301.604431 
    C378.571472,296.999908 368.818939,292.755951 359.247742,288.135803 
    C356.401337,286.761780 354.201477,286.765961 351.420685,288.376862 
    C345.489868,291.812592 339.125824,290.807434 334.506073,286.207977 
    C330.464203,282.183868 329.517578,275.660461 332.233032,270.543762 
    C335.289856,264.783813 340.893524,262.183929 348.076965,263.486877 
z"/>
<path fill="#30d464" opacity="1.000000" stroke="none" 
    d="
M554.012207,837.912720 
    C554.009521,827.447876 554.100403,817.467957 553.949707,807.491760 
    C553.889404,803.500793 555.296753,801.743713 559.463196,801.849121 
    C567.108459,802.042664 574.763000,801.945618 582.412537,801.862000 
    C585.621582,801.826904 587.354736,802.784668 587.271057,806.430542 
    C587.188782,810.013611 585.205139,810.426453 582.390381,810.369263 
    C578.068054,810.281372 573.739197,810.450684 569.419617,810.310608 
    C566.078552,810.202332 564.097961,810.980103 564.064331,814.939819 
    C564.032166,818.738037 565.583313,819.919373 569.142700,819.755310 
    C572.958008,819.579529 576.790771,819.823486 580.615173,819.790588 
    C583.394043,819.766785 584.416687,821.105835 584.406494,823.794495 
    C584.396057,826.545593 583.650818,828.284546 580.495728,828.230347 
    C576.505981,828.161743 572.511414,828.342407 568.523010,828.245422 
    C564.912354,828.157715 564.076904,830.127808 564.013000,833.284058 
    C563.944153,836.683777 565.260864,838.139038 568.702393,838.034912 
    C573.521118,837.889160 578.347412,838.001709 583.170349,837.981750 
    C586.052979,837.969849 588.397522,838.236206 588.407959,842.176331 
    C588.418152,846.002502 586.377686,846.469971 583.330994,846.425293 
    C576.181030,846.320435 569.028625,846.370728 561.877258,846.366516 
    C554.052185,846.361877 554.052185,846.365967 554.012207,837.912720 
z"/>
<path fill="#30d464" opacity="1.000000" stroke="none" 
    d="
M446.322510,839.484253 
    C443.256195,834.788086 442.735870,829.867676 442.785339,824.800293 
    C442.845520,818.635803 442.959747,812.468506 442.837708,806.306702 
    C442.764526,802.611023 444.717987,801.899292 447.866760,801.863708 
    C451.228241,801.825745 452.623901,802.932861 452.535828,806.521606 
    C452.348022,814.171143 451.940460,821.857605 452.965698,829.474365 
    C453.793518,835.624390 457.634979,838.787170 463.428497,838.553467 
    C468.730621,838.339600 472.440033,834.650452 472.665985,828.685547 
    C472.936981,821.530701 472.896790,814.356750 472.748901,807.196167 
    C472.671082,803.427124 473.914795,801.758240 477.918976,801.796997 
    C481.980103,801.836304 482.473816,803.970703 482.400085,807.240601 
    C482.253632,813.735718 482.365234,820.236267 482.320801,826.734192 
    C482.250916,836.950867 478.574463,843.190247 471.042358,845.977173 
    C462.213715,849.243774 452.682007,846.836243 446.322510,839.484253 
z"/>
<path fill="#30d464" opacity="1.000000" stroke="none" 
    d="
M612.021484,845.316650 
    C608.781311,843.495300 603.748962,843.344299 606.339661,837.745544 
    C607.521423,835.191772 609.009338,834.211670 611.789612,835.901123 
    C616.047424,838.488342 620.786499,839.307861 625.733215,838.782410 
    C628.360291,838.503357 630.918762,837.621155 631.324646,834.719543 
    C631.725647,831.852844 629.214233,830.733215 626.986633,830.017517 
    C623.348633,828.848633 619.585754,828.072388 615.934387,826.940430 
    C609.241333,824.865479 605.772461,820.862244 605.810669,815.515808 
    C605.855042,809.308533 609.702393,804.467224 616.388977,802.614807 
    C622.842590,800.827026 629.249634,801.287109 635.494690,803.710205 
    C637.847534,804.623169 639.752686,805.707825 638.205933,808.855103 
    C636.934204,811.442627 635.965149,813.713562 632.345581,811.750916 
    C628.372986,809.596680 623.980835,809.601257 619.668457,810.533447 
    C617.696838,810.959656 615.726135,812.079956 615.596069,814.389038 
    C615.477661,816.492310 617.252441,817.697205 618.973999,818.287292 
    C622.745972,819.580139 626.613892,820.597961 630.455688,821.681763 
    C637.719666,823.730957 641.258545,827.617432 641.236389,833.582214 
    C641.212341,840.043030 637.235046,844.597717 630.102600,846.401245 
    C624.094543,847.920532 618.212891,847.385254 612.021484,845.316650 
z"/>
<path fill="#30d464" opacity="1.000000" stroke="none" 
    d="
M526.954529,837.983765 
    C529.108154,837.962524 530.774414,837.958496 532.439941,837.923462 
    C535.520508,837.858704 536.410278,839.523804 536.340637,842.372070 
    C536.276306,845.003418 535.443787,846.406494 532.578552,846.379761 
    C524.581543,846.305054 516.583130,846.315308 508.585938,846.374207 
    C505.890442,846.394043 504.652740,845.330200 504.667236,842.537964 
    C504.730438,830.374878 504.761078,818.210754 504.663788,806.048157 
    C504.632660,802.157898 506.972260,801.897278 509.907196,801.842651 
    C513.142578,801.782410 514.316162,803.228271 514.272949,806.388672 
    C514.156616,814.884827 514.485718,823.394592 514.125732,831.877258 
    C513.915588,836.829407 515.807800,838.516113 520.471741,838.036804 
    C522.450867,837.833374 524.467285,837.992676 526.954529,837.983765 
z"/>
</svg>
