<svg xmlns="http://www.w3.org/2000/svg" viewBox="0 0 80.154 37.571"><path d="M138.245 91.201c-27.399 0-44.199 21.399-44.199 42.999 0 26 21.2 42.999 44.399 42.999 15.399 0 30-6.799 42.399-17.799v32.2c-13 7.8-30.8 12.6-44.6 12.6-39.599 0-72.799-32.199-72.799-69.999 0-39.999 33.399-69.999 72.999-69.999 15.2 0 33 4.6 44.599 10.4v31.599c-14.599-9.6-29.398-15-42.798-15zM265.025 204.199c-39.799 0-73.398-31-73.398-69.999 0-39.399 33.4-69.999 75.199-69.999 15.199 0 34 4 45.6 9.4V105c-13.199-7.6-30.199-13.8-45-13.8-27.398 0-45.199 21.399-45.199 42.999 0 25.399 21 43.8 45.6 43.8 5.199 0 10.199-.4 16.6-2.801V150h-22.398v-26.6h51.199v70.799c-14.603 6.601-31.001 10-48.203 10zM335.59 201.399V67.001h28.799v134.398z" style="fill:#e11937" transform="matrix(.26458 0 0 .26458 -16.522 -16.722)"/></svg>