<svg xmlns="http://www.w3.org/2000/svg" fill="none" viewBox="0 0 101 32"><g clip-path="url(#a)"><path fill="#d3121d" d="M27.1 13.92q0-3.92-1.41-7.43l-.43.2c-.43.22-.67.68-.61 1.16.11.96.18 2.1.18 3.1 0 4.76-1.53 9.32-4.32 12.84a16 16 0 0 1-10 6.1h.02a7.9 7.9 0 0 0 7.32.23c5.43-2.67 9.26-8.93 9.26-16.21h-.01"/><path fill="#d3121d" d="M28.16 6.01q-.54 0-1 .07c.96 2.46 1.46 5.1 1.46 7.84 0 8.15-4.55 15.4-11.2 18.05l1.02.03h.05c3.2 0 6.24-1.47 8.25-3.96A19 19 0 0 0 30.84 16c0-3.6-.92-7.04-2.67-9.99"/><path fill="#d3121d" d="M34.43 16c0-2.17-.43-4.24-1.21-6.13a7 7 0 0 0-1.54-2.34 5 5 0 0 0-1.54-1.06A21 21 0 0 1 32.35 16c0 4.73-1.53 9.28-4.27 12.77A16 16 0 0 0 34.44 16"/><path fill="#290042" d="M29.91 4.85C27.01 1.86 22.94 0 18.44 0c-8.85 0-16.1 7.33-16 16.16.02 2.16.47 4.23 1.27 6.1q-.4-.05-.8-.03a8 8 0 0 1-2.18-.36c-.45-.12-.87.24-.68.68v.01c1.59 3.64 5.1 6 8.47 6l.67-.03c7.87-.6 14.12-8.25 14.12-17.56q0-.87-.08-1.75c-.02-.32-.43-.43-.62-.17-2.18 2.88-5.4 7.95-9.44 5.3-1.54-1-2.38-3.18-1.9-5.4.83-4 5.48-6.6 7.52-5.8.16.07.73.3.93.83.3.8-.6 1.46-1.07 2.87-.5 1.54-.21 3.17.14 3.24.38.08 1.04-1.35 2.64-2.65 1.17-.94 2.05-1.21 2.6-2.2.54-.96-.41-2-.1-2.09.34-.1.63 1.03 1.6 1.58.8.47 1.51.18 2.57.14 0 0 .45-.02 1.17.09l.54.1c.11.02.2-.13.11-.2M18 17.2c.12-.14.34-.4.73-.44.07 0 .45-.04.7.2.38.36.28 1.05-.06 1.45-.3.37-.92.62-1.35.34-.36-.23-.37-.73-.37-.77 0-.38.22-.65.34-.78M43.55 23.5a4.3 4.3 0 0 1-1.85-1.47q-.6-.84-.66-1.92c-.01-.15.12-.28.28-.28h1.03c.6 0 1.2.3 1.47.86q.2.39.52.7.66.6 1.86.6c.8 0 1.48-.2 1.94-.6q.7-.59.7-1.54 0-.73-.44-1.2a3 3 0 0 0-1.07-.71q-.63-.26-1.77-.54a18 18 0 0 1-2.33-.77q-.9-.4-1.53-1.21a3.5 3.5 0 0 1-.63-2.18 3.9 3.9 0 0 1 2.4-3.66q1.14-.5 2.63-.5 2.13 0 3.48 1.06a3.9 3.9 0 0 1 1.47 2.6c.03.17-.11.31-.27.31h-2.1q-.22-.02-.28-.23-.12-.64-.72-1.13a2.8 2.8 0 0 0-1.84-.57q-1.02 0-1.68.53t-.65 1.5q0 .68.4 1.11.42.43 1.05.68.62.26 1.72.54 1.45.4 2.37.8a4 4 0 0 1 1.56 1.24q.64.84.64 2.21 0 1.12-.6 2.1a4.3 4.3 0 0 1-1.74 1.59q-1.15.6-2.7.6-1.48 0-2.65-.51zM55.83 23.3a5.4 5.4 0 0 1-2.08-2.1Q53 19.85 53 18.06q0-1.78.78-3.14a5.3 5.3 0 0 1 2.13-2.1 6 6 0 0 1 3-.73q1.66 0 3.01.73 1.35.74 2.13 2.1.78 1.37.78 3.14t-.8 3.13a5.5 5.5 0 0 1-2.18 2.12q-1.38.74-3.04.74a6 6 0 0 1-2.97-.74m4.7-1.77q.8-.45 1.31-1.33.5-.88.5-2.14a4.3 4.3 0 0 0-.48-2.14 3 3 0 0 0-1.28-1.3 3.5 3.5 0 0 0-3.44 0q-.8.44-1.26 1.3-.46.88-.46 2.14 0 1.87.96 2.9a3.2 3.2 0 0 0 2.4 1.01q.93 0 1.74-.44M80.3 14.92q.74-1.34 1.98-2.1 1.26-.74 2.77-.73a5 5 0 0 1 4.02 1.87v-.04c0-.9.73-1.64 1.64-1.64h.5c.15 0 .27.12.27.27v11.04c0 .15-.12.27-.27.27h-1.87a.27.27 0 0 1-.27-.27v-1.45q-.61.81-1.67 1.37-1.05.54-2.4.54-1.5 0-2.73-.77a5.5 5.5 0 0 1-1.97-2.14 6.7 6.7 0 0 1-.73-3.12q0-1.74.73-3.1m8.27 1.05a3.4 3.4 0 0 0-3.02-1.8 3.4 3.4 0 0 0-3.03 1.78q-.49.87-.5 2.07.01 1.2.5 2.1a3.4 3.4 0 0 0 3.02 1.85 3.4 3.4 0 0 0 3.02-1.82q.5-.9.5-2.1t-.5-2.08zM98.6 12.58q.75-.43 1.78-.49c.15 0 .28.12.28.28v2.2h-.6q-1.4 0-2.14.71-.73.71-.73 2.48v5.83c0 .15-.12.27-.27.27h-1.85a.27.27 0 0 1-.27-.27V12.55c0-.15.12-.27.27-.27h.49c.9 0 1.64.73 1.64 1.64v.04q.53-.9 1.4-1.38M76.84 14.33a4 4 0 0 0-1.7-1.68 5 5 0 0 0-2.45-.56h-.26l-.11.01q-.15 0-.27.03l-.2.03q-.18.03-.34.08l-.06.01q-.43.13-.8.33-.88.5-1.4 1.38v-.04c0-.9-.74-1.64-1.64-1.64h-.5a.3.3 0 0 0-.26.27v11.04c0 .15.12.27.27.27h1.85c.15 0 .27-.12.27-.27v-6.2q0-1.55.8-2.39a2.8 2.8 0 0 1 2.13-.83q1.34 0 2.12.83.78.84.78 2.39v6.2c0 .16.12.28.27.28h1.83c.15 0 .27-.12.27-.28v-6.55q0-1.58-.6-2.7"/></g><defs><clipPath id="a"><path fill="#fff" d="M0 0h100.66v32H0z"/></clipPath></defs></svg>