<svg xmlns="http://www.w3.org/2000/svg" xml:space="preserve" aria-label="Thales. Building a future we can all trust." viewBox="0 0 483.8 97.3"><path fill="#2C2F73" d="M482 41.9c0 7.7-2.2 10-8.5 11.9-6.7 2-18.6 3.3-25.6 3.3-8.4 0-18.8-.5-27.7-2.6v-9.1h49.1V33.3h-34.8c-10.4 0-14.4-2.9-14.4-13.1V15c0-8.1 2.4-10.5 8.9-12.1 6.6-1.7 17.3-2.8 24.4-2.8 8.5 0 18.8.7 27.7 2.6v9H433V22h34.8c10.4 0 14.4 2.8 14.4 13.1l-.2 6.8zM398.3 54.5c-10.2 2-20.4 2.6-30.4 2.6-9.9 0-20.3-.5-30.6-2.6V2.6C347.5.6 357.8 0 367.7 0c9.9 0 20.1.7 30.2 2.6v9.2h-46v10.4h30V33h-30v12.3h46.2l.2 9.2zM319.8 54.5c-9.1 2-18.4 2.6-27.2 2.6-8.9 0-18.2-.5-27.3-2.6V1.2h14.6v43.3h39.9v10zM247.6 54.8c-4.9 1.4-11.3 1.9-16.1 2l-22.6-45.6h-1.2l-22.6 45.6c-4.8-.1-10.5-.6-15.3-2l28.6-53.5h20.4l28.8 53.5z" class="logoSt2"/><path fill="#5EBFD4" d="M217.9 41.3c0 5.2-4.3 9.5-9.6 9.5-5.2 0-9.5-4.3-9.5-9.5s4.3-9.5 9.5-9.5c5.2-.1 9.6 4.2 9.6 9.5" class="logoSt4"/><path fill="#2C2F73" d="M152.1 54.9c-4.7 1.4-9.7 1.8-14.7 1.9V33.6H101v23.3c-5-.1-10-.6-14.7-1.9V2.3C91 .9 96 .5 101 .4v22.4h36.4V.4c5 .1 10 .6 14.7 1.9v52.6zM65.9 12H40.2v43.9H25.7V12H0V2.6C11.1.6 22.2 0 33 0s21.9.7 32.9 2.6V12z" class="logoSt2"/><path fill="#5EBFD4" d="M12.7 80c.3.1.5.2.5.6v1.8c0 .2-.1.3-.3.3H8.3c-3.1 0-3.6 1.3-3.6 5.7s.5 5.7 3.6 5.7h4.6c.2 0 .3.1.3.3v1.8c0 .3-.2.5-.5.6-1.1.2-2.4.3-4.4.3-5.7 0-7.2-2-7.2-8.8 0-6.8 1.5-8.8 7.2-8.8 1.9.2 3.3.3 4.4.5zM26.3 90.9c0 5.1-1 6.4-5.7 6.4s-5.7-1.2-5.7-6.4c0-5.1 1-6.4 5.7-6.4s5.7 1.3 5.7 6.4zm-8.1 0c0 2.8.3 3.5 2.4 3.5s2.4-.7 2.4-3.5-.3-3.5-2.4-3.5c-2 0-2.4.7-2.4 3.5zM39.7 89.9v6.9c0 .3-.1.3-.3.3h-2.6c-.2 0-.3-.1-.3-.3v-6.1c0-3.2-.3-3.3-2.4-3.3h-2v9.4c0 .3-.1.3-.3.3H29c-.2 0-.3-.1-.3-.3V85.2c0-.3.1-.3.3-.3 1.5-.3 3.7-.4 5.4-.4 4.2 0 5.3.8 5.3 5.4zM50.6 84.8c.3.1.3.1.3.3v1.7c0 .3-.1.3-.4.3h-4c-.9 0-1.3.3-1.3.8v.2c0 .4.3.7 1 1l2.9 1.1c1.9.7 2.4 1.8 2.4 3.3v.5c0 2.6-1.9 3.3-4.8 3.3-2 0-3.5-.1-4.7-.2-.3 0-.4-.1-.4-.3V95c0-.3.1-.3.4-.3h4.6c1.2 0 1.6-.1 1.6-.8v-.2c0-.4-.3-.7-1.2-1l-2.8-1c-1.8-.6-2.3-2-2.3-3.4v-.4c0-2.4 1.8-3.2 5.1-3.2 1.1-.2 2.3-.1 3.6.1zM57.4 81.1c.2-.1.3.1.3.3v3.2h2c.3 0 .4.1.4.3v1.8c0 .2-.1.3-.4.3h-2v6.1c0 1 .3 1.1 1.3 1.1h.9c.3 0 .4.1.4.3v1.9c0 .3-.1.4-.3.4-.8.1-1.4.2-1.9.2-1.9 0-3.7-.1-3.7-2.9V87h-1.3c-.3 0-.3-.1-.3-.3v-1.8c0-.2.1-.3.3-.3h1.3v-2.5c0-.2.1-.3.3-.3l2.7-.7zM69.1 84.7c.3.1.3.1.3.5V87c0 .2-.1.3-.4.3h-2c-1.2 0-1.6.2-1.6 1.1v8.3c0 .3-.1.3-.3.3h-2.7c-.2 0-.3-.1-.3-.3v-9.1c0-2.8 2-3.1 4.1-3.1.6 0 2.1.1 2.9.2zM81.8 84.6c.2 0 .3.1.3.3v11.5c0 .3-.1.3-.3.4-1.5.3-3.7.4-5.4.4-4.3 0-5.4-.8-5.4-5.4V85c0-.2.1-.3.3-.3H74c.2 0 .3.1.3.3v6.1c0 3.2.3 3.4 2.4 3.4h2v-9.4c0-.2.1-.3.3-.3h2.7v-.2zM88.4 81.1c0 1.1-.7 1.8-1.9 1.8s-2-.7-2-1.8.7-1.8 2-1.8c1.2.1 1.9.7 1.9 1.8zm-.7 3.5c.2 0 .3.1.3.3v11.9c0 .3-.1.3-.3.3h-2.6c-.2 0-.3-.1-.3-.3V84.9c0-.2.1-.3.3-.3h2.6zM99.1 84.8c.3.1.3.1.3.3v1.7c0 .3-.1.3-.4.3h-3.9c-.9 0-1.3.3-1.3.8v.2c0 .4.3.7 1 1l2.9 1c1.9.7 2.4 1.8 2.4 3.3v.3c0 2.6-1.9 3.3-4.8 3.3-2 0-3.5-.1-4.7-.2-.3 0-.4-.1-.4-.3v-1.7c0-.3.1-.3.4-.3h4.6c1.2 0 1.6-.1 1.6-.8v-.2c0-.4-.3-.7-1.2-1l-2.8-1c-1.8-.6-2.3-2-2.3-3.4v-.4c0-2.4 1.8-3.2 5.1-3.2.9 0 2.2.1 3.5.3zM113.1 90.9c0 5.1-1 6.4-5.7 6.4s-5.7-1.2-5.7-6.4c0-5.1 1-6.4 5.7-6.4s5.7 1.3 5.7 6.4zm-8 0c0 2.8.3 3.5 2.4 3.5s2.4-.7 2.4-3.5-.3-3.5-2.4-3.5-2.4.7-2.4 3.5zM126.6 89.9v6.9c0 .3-.1.3-.3.3h-2.6c-.2 0-.3-.1-.3-.3v-6.1c0-3.2-.3-3.3-2.4-3.3h-2v9.4c0 .3-.1.3-.3.3H116c-.2 0-.3-.1-.3-.3V85.2c0-.3.1-.3.3-.3 1.5-.3 3.7-.4 5.4-.4 4 0 5.2.8 5.2 5.4zM137.5 84.8c.3.1.3.1.3.3v1.7c0 .3-.1.3-.4.3h-4c-.9 0-1.3.3-1.3.8v.2c0 .4.3.7 1 1l2.9 1c1.9.7 2.4 1.8 2.4 3.3v.3c0 2.6-1.9 3.3-4.8 3.3-2 0-3.5-.1-4.7-.2-.3 0-.4-.1-.4-.3v-1.7c0-.3.1-.3.4-.3h4.6c1.2 0 1.6-.1 1.6-.8v-.2c0-.4-.3-.7-1.2-1l-2.8-1c-1.8-.6-2.3-2-2.3-3.4v-.4c0-2.4 1.8-3.2 5.1-3.2 1 0 2.2.1 3.6.3zM155.8 90.8v.7c0 .5-.1.6-.7.6h-7c.1 2 .6 2.4 2.6 2.4h3.9c.2 0 .3.1.3.3v1.8c0 .3-.1.3-.3.3-1.2.3-2.8.3-4.3.3-4.5 0-5.6-1.2-5.6-6.4 0-5.1 1.1-6.4 5.6-6.4 4.4.1 5.5 1.3 5.5 6.4zm-7.7-1h4.5c0-2-.5-2.5-2.2-2.5-1.8.1-2.3.6-2.3 2.5zM169 89.9v6.9c0 .3-.1.3-.3.3h-2.6c-.2 0-.3-.1-.3-.3v-6.1c0-3.2-.3-3.3-2.4-3.3h-2v9.4c0 .3-.1.3-.3.3h-2.7c-.2 0-.3-.1-.3-.3V85.2c0-.3.1-.3.3-.3 1.5-.3 3.7-.4 5.4-.4 4.1 0 5.2.8 5.2 5.4zM180 84.8c.3.1.3.1.3.3v1.7c0 .3-.1.3-.4.3h-4c-.9 0-1.3.3-1.3.8v.2c0 .4.3.7 1 1l2.9 1c1.9.7 2.4 1.8 2.4 3.3v.3c0 2.6-1.9 3.3-4.8 3.3-2 0-3.5-.1-4.7-.2-.3 0-.4-.1-.4-.3v-1.7c0-.3.1-.3.4-.3h4.6c1.2 0 1.6-.1 1.6-.8v-.2c0-.4-.3-.7-1.2-1l-2.8-1c-1.8-.6-2.3-2-2.3-3.4v-.4c0-2.4 1.8-3.2 5.1-3.2.9 0 2.2.1 3.6.3zM193.7 90.8v.7c0 .5-.1.6-.7.6h-7c.1 2 .6 2.4 2.6 2.4h3.9c.2 0 .3.1.3.3v1.8c0 .3-.1.3-.3.3-1.2.3-2.8.3-4.3.3-4.5 0-5.6-1.2-5.6-6.4 0-5.1 1.1-6.4 5.6-6.4 4.4.1 5.5 1.3 5.5 6.4zm-7.8-1h4.5c0-2-.5-2.5-2.2-2.5-1.7.1-2.3.6-2.3 2.5zM213.1 89.3v7.5c0 .3-.1.3-.3.3h-2.6c-.2 0-.3-.1-.3-.3v-6.1c0-3.2-.3-3.3-2.1-3.3-.6 0-1.2.1-1.8.1.2.6.3 1.4.3 2.4v6.9c0 .3-.1.3-.3.3h-2.7c-.2 0-.3-.1-.3-.3V90c0-2.5-.4-2.6-2.2-2.6h-1.5v9.4c0 .3-.1.3-.3.3h-2.6c-.2 0-.3-.1-.3-.3V85.1c0-.3.1-.3.3-.3 1.2-.3 3.1-.4 4.3-.4 1.7 0 3.1.3 4 .7 1.2-.5 2.8-.7 3.9-.7 3.2.1 4.5 1.1 4.5 4.9zM218.6 79.8c.3 0 .3.1.3.3v4.5c.9-.1 1.7-.1 2.8-.1 4.1 0 5.2 1.4 5.2 6.4s-1.1 6.4-5.8 6.4c-1.6 0-3.1-.1-4.9-.4-.3-.1-.5-.2-.5-.6V80.2c0-.3.1-.3.3-.3l2.6-.1zm.3 7.6v6.8c.7.1 1.6.1 2.2.1 2.2 0 2.4-.9 2.4-3.5 0-2.9-.3-3.5-2.6-3.5l-2 .1zM232.1 79.8c.2 0 .3.1.3.3v16.7c0 .3-.1.3-.3.3h-2.6c-.2 0-.3-.1-.3-.3V80.1c0-.2.1-.3.3-.3h2.6zM245.9 90.8v.7c0 .5-.1.6-.7.6h-7c.1 2 .6 2.4 2.6 2.4h3.9c.2 0 .3.1.3.3v1.8c0 .3-.1.3-.3.3-1.2.3-2.8.3-4.3.3-4.5 0-5.6-1.2-5.6-6.4 0-5.1 1.1-6.4 5.6-6.4 4.4.1 5.5 1.3 5.5 6.4zm-7.8-1h4.5c0-2-.5-2.5-2.2-2.5-1.7.1-2.3.6-2.3 2.5z" class="logoSt4"/><path fill="#2C2F73" d="M263.1 84.8c.2 0 .3.1.3.3v11.4c0 .3-.1.3-.3.3-1.6.3-3.7.4-5 .4-4.1 0-5.3-.7-5.3-5.3v-6.8c0-.2.1-.3.4-.3h2c.2 0 .3.1.3.3v6.4c0 3.3.5 3.5 2.6 3.5h2.6v-9.8c0-.2.1-.3.3-.3h2.1zM277 90v6.8c0 .2-.1.3-.3.3h-2c-.2 0-.3-.1-.3-.3v-6.4c0-3.3-.5-3.5-2.6-3.5h-2.6v9.8c0 .2-.1.3-.3.3h-2c-.2 0-.3-.1-.3-.3V85.4c0-.3.1-.3.3-.3 1.6-.3 3.7-.3 5-.3 3.9-.1 5.1.5 5.1 5.2zM294.1 88.3v7.8c0 .3-.1.5-.5.7-1.2.3-3.1.5-5 .5-3.1 0-4.7-.5-4.7-3.7 0-2.8 1.5-3.5 4.3-3.5h3.2v-1.2c0-1.2-.7-1.8-2.6-1.8h-3.7c-.3 0-.3-.1-.3-.3v-1.4c0-.3.1-.3.3-.3 1.3-.3 2.6-.3 3.7-.3 4-.1 5.3 1.1 5.3 3.5zm-5.9 3.6c-1.2 0-1.7.4-1.7 1.5 0 1.2.6 1.6 2.2 1.6.6 0 1.8-.1 2.6-.3v-2.8h-3.1zM307.3 84.8c.3 0 .3.1.3.3l-2.6 9.5c-.6 2.4-.8 2.6-3.3 2.6-2.4 0-2.6-.3-3.1-2.6l-2.6-9.5c-.1-.3.1-.3.3-.3h2.2c.2 0 .2.1.3.3L301 94c.2.8.3.9.7.9.5 0 .6-.1.8-.9l2.2-8.9c.1-.3.1-.3.3-.3h2.3zM319.6 90.8v.7c0 .4-.1.6-.8.6h-7.1c.1 2.4.6 2.9 2.8 2.9h3.8c.2 0 .3.1.3.3v1.4c0 .3-.1.3-.3.4-1.2.2-2.6.3-4 .3-4.4 0-5.4-1.2-5.4-6.3 0-5 1-6.3 5.4-6.3 4.4-.1 5.3 1 5.3 6zm-7.8-.8h5.1c0-2.4-.5-3-2.5-3s-2.6.6-2.6 3zM332.6 90v6.8c0 .2-.1.3-.3.3h-2c-.2 0-.3-.1-.3-.3v-6.4c0-3.3-.5-3.5-2.6-3.5h-2.6v9.8c0 .2-.1.3-.3.3h-2c-.2 0-.3-.1-.3-.3V85.4c0-.3.1-.3.3-.3 1.6-.3 3.7-.3 5-.3 4-.1 5.1.5 5.1 5.2zM338.3 81.3c0 1-.6 1.6-1.6 1.6s-1.6-.6-1.6-1.6.6-1.6 1.6-1.6c1.1 0 1.6.6 1.6 1.6zm-.6 3.5c.2 0 .3.1.3.3v11.7c0 .2-.1.3-.3.3h-2c-.2 0-.3-.1-.3-.3V85.1c0-.2.1-.3.3-.3h2zM347.5 84.9c.2.1.3.1.3.4v1.4c0 .3-.1.3-.4.3h-2c-1.3 0-1.8.2-1.8 1.2v8.6c0 .2-.1.3-.3.3h-2c-.2 0-.3-.1-.3-.3v-9.3c0-2.7 2.1-2.9 3.8-2.9.6.1 2.1.1 2.7.3zM364.4 80.1c.3 0 .3.1.3.3v16c0 .3-.1.4-.4.5-1.9.3-3.1.4-4.8.4-4.5 0-5.5-1.2-5.5-6.3 0-5 1-6.3 5.1-6.3 1.2 0 2.1.1 2.9.1v-4.4c0-.3.1-.3.3-.3h2.1zm-4.8 6.9c-2.5 0-2.8.7-2.8 3.9 0 3 .3 3.9 2.8 3.9.7 0 1.7-.1 2.5-.2V87h-2.5zM377.8 90.8v.7c0 .4-.1.6-.8.6h-7.1c.1 2.4.6 2.9 2.8 2.9h3.8c.2 0 .3.1.3.3v1.4c0 .3-.1.3-.3.4-1.2.2-2.6.3-4 .3-4.4 0-5.4-1.2-5.4-6.3 0-5 1-6.3 5.4-6.3 4.3-.1 5.3 1 5.3 6zm-7.9-.8h5.1c0-2.4-.5-3-2.5-3s-2.6.6-2.6 3zM393.5 84.9c.2.1.3.1.3.4v1.4c0 .2-.1.3-.3.3H390c-2.4 0-2.7.8-2.7 3.9s.3 3.9 2.7 3.9h3.5c.3 0 .3.1.3.3v1.4c0 .3-.1.3-.3.4-1.2.2-2.6.3-3.5.3-4.5 0-5.4-1.2-5.4-6.3 0-5 .9-6.3 5.4-6.3.9.1 2.3.1 3.5.3zM406.5 91c0 5-1 6.3-5.4 6.3-4.5 0-5.4-1.2-5.4-6.3 0-5 1-6.3 5.4-6.3 4.5 0 5.4 1.2 5.4 6.3zm-8.2 0c0 3.1.3 3.9 2.8 3.9 2.4 0 2.8-.8 2.8-3.9s-.3-3.9-2.8-3.9c-2.4-.1-2.8.7-2.8 3.9zM419.7 90v6.8c0 .2-.1.3-.3.3h-2c-.2 0-.3-.1-.3-.3v-6.4c0-3.3-.5-3.5-2.6-3.5h-2.6v9.8c0 .2-.1.3-.3.3h-2c-.2 0-.3-.1-.3-.3V85.4c0-.3.1-.3.3-.3 1.6-.3 3.7-.3 5-.3 3.9-.1 5.1.5 5.1 5.2zM428.8 80.1c.2.1.3.1.3.4V82c0 .2-.1.3-.3.3h-1.1c-1.1 0-1.6.1-1.6 1v1.5h7.3c.2 0 .3.1.3.3v11.7c0 .2-.1.3-.3.3h-2c-.2 0-.3-.1-.3-.3V87h-5v9.9c0 .2-.1.3-.3.3h-2.1c-.2 0-.3-.1-.3-.3V87h-1.5c-.3 0-.3-.1-.3-.3v-1.4c0-.2.1-.3.3-.3h1.5v-2c0-2.7 2-2.9 3.6-2.9.5-.2 1.2-.1 1.8 0zm5.3 1.2c0 1-.6 1.6-1.6 1.6s-1.6-.6-1.6-1.6.6-1.6 1.6-1.6 1.6.6 1.6 1.6zM446.2 88.3v7.8c0 .3-.1.5-.5.7-1.2.3-3.1.5-5 .5-3.1 0-4.7-.5-4.7-3.7 0-2.8 1.5-3.5 4.3-3.5h3.2v-1.2c0-1.2-.7-1.8-2.6-1.8h-3.7c-.3 0-.3-.1-.3-.3v-1.4c0-.3.1-.3.3-.3 1.3-.3 2.6-.3 3.7-.3 4-.1 5.3 1.1 5.3 3.5zm-5.7 3.6c-1.2 0-1.7.4-1.7 1.5 0 1.2.6 1.6 2.2 1.6.6 0 1.8-.1 2.6-.3v-2.8h-3.1zM459.6 90v6.8c0 .2-.1.3-.3.3h-2c-.2 0-.3-.1-.3-.3v-6.4c0-3.3-.5-3.5-2.6-3.5h-2.6v9.8c0 .2-.1.3-.3.3h-2c-.2 0-.3-.1-.3-.3V85.4c0-.3.1-.3.3-.3 1.6-.3 3.7-.3 5-.3 4-.1 5.1.5 5.1 5.2zM471 84.9c.2.1.3.1.3.4v1.4c0 .2-.1.3-.3.3h-3.5c-2.4 0-2.7.8-2.7 3.9s.3 3.9 2.7 3.9h3.5c.3 0 .3.1.3.3v1.4c0 .3-.1.3-.3.4-1.2.2-2.6.3-3.5.3-4.5 0-5.4-1.2-5.4-6.3 0-5 .9-6.3 5.4-6.3.9.1 2.3.1 3.5.3zM483.8 90.8v.7c0 .4-.1.6-.8.6h-7.1c.1 2.4.6 2.9 2.8 2.9h3.8c.2 0 .3.1.3.3v1.4c0 .3-.1.3-.3.4-1.2.2-2.6.3-4 .3-4.4 0-5.4-1.2-5.4-6.3 0-5 1-6.3 5.4-6.3 4.3-.1 5.2 1 5.3 6zm-7.9-.8h5.1c0-2.4-.5-3-2.5-3s-2.6.6-2.6 3z" class="logoSt2"/></svg>